<?xml version="1.0" encoding="utf-8"?>
<!-- Generator: Adobe Illustrator 25.0.1, SVG Export Plug-In . SVG Version: 6.00 Build 0)  -->
<svg version="1.1" id="Layer_1" xmlns="http://www.w3.org/2000/svg" xmlns:xlink="http://www.w3.org/1999/xlink" x="0px" y="0px"
	 viewBox="0 0 60 60" style="enable-background:new 0 0 60 60;" xml:space="preserve">
<style type="text/css">
	.st0{clip-path:url(#SVGID_2_);}
	.st1{clip-path:url(#SVGID_4_);}
	.st2{clip-path:url(#SVGID_6_);}
	.st3{clip-path:url(#SVGID_8_);}
	.st4{clip-path:url(#SVGID_10_);}
	.st5{clip-path:url(#SVGID_12_);}
	.st6{clip-path:url(#SVGID_14_);}
	.st7{clip-path:url(#SVGID_16_);}
	.st8{clip-path:url(#SVGID_18_);}
	.st9{clip-path:url(#SVGID_20_);}
	.st10{clip-path:url(#SVGID_22_);}
	.st11{clip-path:url(#SVGID_24_);}
	.st12{clip-path:url(#SVGID_26_);}
	.st13{clip-path:url(#SVGID_28_);}
	.st14{clip-path:url(#SVGID_30_);}
	.st15{clip-path:url(#SVGID_32_);}
	.st16{clip-path:url(#SVGID_34_);}
	.st17{clip-path:url(#SVGID_36_);}
	.st18{clip-path:url(#SVGID_38_);}
	.st19{clip-path:url(#SVGID_40_);}
	.st20{clip-path:url(#SVGID_42_);}
	.st21{clip-path:url(#SVGID_44_);}
	.st22{clip-path:url(#SVGID_46_);}
	.st23{clip-path:url(#SVGID_48_);}
	.st24{clip-path:url(#SVGID_50_);}
	.st25{clip-path:url(#SVGID_52_);enable-background:new    ;}
	.st26{clip-path:url(#SVGID_54_);}
	.st27{clip-path:url(#SVGID_56_);}
	.st28{clip-path:url(#SVGID_58_);}
	.st29{clip-path:url(#SVGID_60_);}
	.st30{clip-path:url(#SVGID_62_);}
	.st31{clip-path:url(#SVGID_64_);}
	.st32{clip-path:url(#SVGID_66_);}
	.st33{clip-path:url(#SVGID_68_);}
	.st34{clip-path:url(#SVGID_70_);}
	.st35{clip-path:url(#SVGID_72_);}
	.st36{clip-path:url(#SVGID_74_);}
	.st37{clip-path:url(#SVGID_76_);}
	.st38{clip-path:url(#SVGID_78_);}
	.st39{clip-path:url(#SVGID_80_);}
	.st40{clip-path:url(#SVGID_82_);}
	.st41{clip-path:url(#SVGID_84_);}
	.st42{clip-path:url(#SVGID_86_);enable-background:new    ;}
	.st43{clip-path:url(#SVGID_88_);}
	.st44{clip-path:url(#SVGID_90_);}
	.st45{clip-path:url(#SVGID_92_);}
	.st46{clip-path:url(#SVGID_94_);}
	.st47{clip-path:url(#SVGID_96_);enable-background:new    ;}
	.st48{clip-path:url(#SVGID_98_);}
	.st49{clip-path:url(#SVGID_100_);}
	.st50{clip-path:url(#SVGID_102_);}
	.st51{clip-path:url(#SVGID_104_);}
	.st52{clip-path:url(#SVGID_106_);}
	.st53{clip-path:url(#SVGID_108_);}
	.st54{clip-path:url(#SVGID_110_);enable-background:new    ;}
	.st55{clip-path:url(#SVGID_112_);}
	.st56{clip-path:url(#SVGID_114_);}
	.st57{clip-path:url(#SVGID_116_);}
	.st58{clip-path:url(#SVGID_118_);}
	.st59{clip-path:url(#SVGID_120_);enable-background:new    ;}
	.st60{clip-path:url(#SVGID_122_);}
	.st61{clip-path:url(#SVGID_124_);fill:none;stroke:#000000;stroke-width:10;stroke-miterlimit:10;}
	.st62{clip-path:url(#SVGID_126_);}
	.st63{clip-path:url(#SVGID_128_);}
	.st64{clip-path:url(#SVGID_130_);}
	.st65{clip-path:url(#SVGID_132_);}
	.st66{clip-path:url(#SVGID_134_);}
	.st67{clip-path:url(#SVGID_136_);}
	.st68{clip-path:url(#SVGID_138_);}
	.st69{clip-path:url(#SVGID_140_);}
	.st70{fill:none;stroke:#000000;stroke-width:5;stroke-miterlimit:10;}
	.st71{clip-path:url(#SVGID_142_);}
	.st72{clip-path:url(#SVGID_144_);enable-background:new    ;}
	.st73{clip-path:url(#SVGID_146_);}
	.st74{clip-path:url(#SVGID_148_);fill:none;stroke:#000000;stroke-width:10;stroke-miterlimit:10;}
	.st75{clip-path:url(#SVGID_150_);}
	.st76{clip-path:url(#SVGID_152_);}
	.st77{clip-path:url(#SVGID_154_);}
	.st78{clip-path:url(#SVGID_156_);}
	.st79{clip-path:url(#SVGID_158_);}
	.st80{clip-path:url(#SVGID_160_);}
	.st81{clip-path:url(#SVGID_162_);}
	.st82{clip-path:url(#SVGID_164_);enable-background:new    ;}
	.st83{clip-path:url(#SVGID_166_);}
	.st84{clip-path:url(#SVGID_168_);fill:none;stroke:#000000;stroke-width:10;stroke-miterlimit:10;}
	.st85{clip-path:url(#SVGID_170_);}
	.st86{clip-path:url(#SVGID_172_);fill:#231F20;}
	.st87{clip-path:url(#SVGID_174_);}
	.st88{clip-path:url(#SVGID_176_);}
	.st89{clip-path:url(#SVGID_178_);}
	.st90{clip-path:url(#SVGID_180_);}
	.st91{clip-path:url(#SVGID_182_);}
	.st92{clip-path:url(#SVGID_184_);}
	.st93{clip-path:url(#SVGID_186_);}
	.st94{clip-path:url(#SVGID_188_);}
	.st95{clip-path:url(#SVGID_190_);}
	.st96{clip-path:url(#SVGID_192_);}
	.st97{clip-path:url(#SVGID_194_);}
	.st98{clip-path:url(#SVGID_196_);}
	.st99{clip-path:url(#SVGID_198_);}
	.st100{clip-path:url(#SVGID_200_);}
	.st101{clip-path:url(#SVGID_202_);}
	.st102{clip-path:url(#SVGID_204_);}
	.st103{clip-path:url(#SVGID_206_);}
	.st104{clip-path:url(#SVGID_208_);}
	.st105{clip-path:url(#SVGID_210_);}
	.st106{clip-path:url(#SVGID_212_);}
	.st107{clip-path:url(#SVGID_214_);}
	.st108{clip-path:url(#SVGID_216_);}
	.st109{clip-path:url(#SVGID_218_);}
	.st110{clip-path:url(#SVGID_220_);}
	.st111{clip-path:url(#SVGID_222_);}
	.st112{clip-path:url(#SVGID_224_);}
	.st113{clip-path:url(#SVGID_226_);}
	.st114{clip-path:url(#SVGID_228_);}
	.st115{clip-path:url(#SVGID_230_);}
	.st116{clip-path:url(#SVGID_232_);}
	.st117{clip-path:url(#SVGID_234_);}
	.st118{clip-path:url(#SVGID_236_);}
	.st119{fill:none;stroke:#000000;stroke-width:4;stroke-miterlimit:10;}
	.st120{clip-path:url(#SVGID_238_);}
	.st121{clip-path:url(#SVGID_240_);enable-background:new    ;}
	.st122{clip-path:url(#SVGID_242_);}
	.st123{clip-path:url(#SVGID_244_);fill:none;stroke:#000000;stroke-width:10;stroke-miterlimit:10;}
	.st124{clip-path:url(#SVGID_246_);}
	.st125{clip-path:url(#SVGID_248_);}
	.st126{clip-path:url(#SVGID_250_);}
	.st127{clip-path:url(#SVGID_252_);fill:#FFFFFF;}
	.st128{fill:none;stroke:#000000;stroke-width:3;stroke-miterlimit:10;}
	.st129{clip-path:url(#SVGID_254_);}
	.st130{clip-path:url(#SVGID_256_);enable-background:new    ;}
	.st131{clip-path:url(#SVGID_258_);}
	.st132{clip-path:url(#SVGID_260_);}
	.st133{clip-path:url(#SVGID_262_);}
	.st134{clip-path:url(#SVGID_264_);}
	.st135{clip-path:url(#SVGID_266_);fill:#FFFFFF;}
	.st136{clip-path:url(#SVGID_268_);}
	.st137{clip-path:url(#SVGID_270_);fill:#FFFFFF;}
	.st138{clip-path:url(#SVGID_272_);}
	.st139{clip-path:url(#SVGID_274_);fill:#FFFFFF;}
	.st140{clip-path:url(#SVGID_276_);}
	.st141{clip-path:url(#SVGID_278_);enable-background:new    ;}
	.st142{clip-path:url(#SVGID_280_);}
	.st143{clip-path:url(#SVGID_282_);}
	.st144{clip-path:url(#SVGID_284_);}
	.st145{clip-path:url(#SVGID_286_);}
	.st146{clip-path:url(#SVGID_288_);fill:#FFFFFF;}
	.st147{clip-path:url(#SVGID_290_);}
	.st148{clip-path:url(#SVGID_292_);fill:#FFFFFF;}
	.st149{clip-path:url(#SVGID_294_);}
	.st150{clip-path:url(#SVGID_296_);fill:#FFFFFF;}
	.st151{clip-path:url(#SVGID_298_);}
	.st152{clip-path:url(#SVGID_300_);}
	.st153{clip-path:url(#SVGID_302_);}
	.st154{clip-path:url(#SVGID_304_);enable-background:new    ;}
	.st155{clip-path:url(#SVGID_306_);}
	.st156{clip-path:url(#SVGID_308_);}
	.st157{clip-path:url(#SVGID_310_);}
	.st158{clip-path:url(#SVGID_312_);}
	.st159{clip-path:url(#SVGID_314_);}
	.st160{clip-path:url(#SVGID_316_);}
	.st161{clip-path:url(#SVGID_318_);}
	.st162{clip-path:url(#SVGID_320_);}
	.st163{clip-path:url(#SVGID_322_);}
	.st164{clip-path:url(#SVGID_324_);}
	.st165{clip-path:url(#SVGID_326_);}
	.st166{clip-path:url(#SVGID_328_);}
	.st167{clip-path:url(#SVGID_330_);}
	.st168{clip-path:url(#SVGID_332_);}
	.st169{clip-path:url(#SVGID_334_);}
	.st170{clip-path:url(#SVGID_336_);}
	.st171{clip-path:url(#SVGID_338_);}
	.st172{clip-path:url(#SVGID_340_);}
	.st173{clip-path:url(#SVGID_342_);enable-background:new    ;}
	.st174{clip-path:url(#SVGID_344_);}
	.st175{clip-path:url(#SVGID_346_);}
	.st176{clip-path:url(#SVGID_348_);}
	.st177{clip-path:url(#SVGID_350_);}
	.st178{clip-path:url(#SVGID_352_);}
	.st179{clip-path:url(#SVGID_354_);}
	.st180{clip-path:url(#SVGID_356_);}
	.st181{clip-path:url(#SVGID_358_);}
	.st182{clip-path:url(#SVGID_360_);}
	.st183{clip-path:url(#SVGID_362_);}
	.st184{clip-path:url(#SVGID_364_);}
	.st185{clip-path:url(#SVGID_366_);}
	.st186{clip-path:url(#SVGID_368_);}
	.st187{clip-path:url(#SVGID_370_);}
	.st188{clip-path:url(#SVGID_372_);}
	.st189{clip-path:url(#SVGID_374_);}
	.st190{clip-path:url(#SVGID_376_);}
	.st191{clip-path:url(#SVGID_378_);}
	.st192{clip-path:url(#SVGID_380_);enable-background:new    ;}
	.st193{clip-path:url(#SVGID_382_);}
	.st194{clip-path:url(#SVGID_384_);}
	.st195{clip-path:url(#SVGID_386_);}
	.st196{clip-path:url(#SVGID_388_);}
	.st197{clip-path:url(#SVGID_390_);}
	.st198{clip-path:url(#SVGID_392_);}
	.st199{clip-path:url(#SVGID_394_);}
	.st200{clip-path:url(#SVGID_396_);}
	.st201{clip-path:url(#SVGID_398_);}
	.st202{clip-path:url(#SVGID_400_);}
	.st203{clip-path:url(#SVGID_402_);}
	.st204{clip-path:url(#SVGID_404_);}
	.st205{clip-path:url(#SVGID_406_);}
	.st206{clip-path:url(#SVGID_408_);}
	.st207{clip-path:url(#SVGID_410_);}
	.st208{clip-path:url(#SVGID_412_);}
	.st209{clip-path:url(#SVGID_414_);}
	.st210{clip-path:url(#SVGID_416_);}
	.st211{clip-path:url(#SVGID_418_);enable-background:new    ;}
	.st212{clip-path:url(#SVGID_420_);}
	.st213{clip-path:url(#SVGID_422_);fill:none;stroke:#000000;stroke-width:10;stroke-miterlimit:10;}
	.st214{clip-path:url(#SVGID_424_);}
	.st215{clip-path:url(#SVGID_426_);}
	.st216{clip-path:url(#SVGID_428_);}
	.st217{clip-path:url(#SVGID_430_);}
	.st218{fill:none;stroke:#000000;stroke-width:4;stroke-linecap:round;stroke-miterlimit:10;}
	.st219{clip-path:url(#SVGID_432_);}
	.st220{clip-path:url(#SVGID_434_);enable-background:new    ;}
	.st221{clip-path:url(#SVGID_436_);}
	.st222{clip-path:url(#SVGID_438_);fill:none;stroke:#000000;stroke-width:10;stroke-miterlimit:10;}
	.st223{clip-path:url(#SVGID_440_);}
	.st224{clip-path:url(#SVGID_442_);}
	.st225{clip-path:url(#SVGID_444_);}
	.st226{clip-path:url(#SVGID_446_);enable-background:new    ;}
	.st227{clip-path:url(#SVGID_448_);}
	.st228{clip-path:url(#SVGID_450_);}
	.st229{clip-path:url(#SVGID_452_);}
	.st230{clip-path:url(#SVGID_454_);}
	.st231{clip-path:url(#SVGID_456_);}
	.st232{clip-path:url(#SVGID_458_);}
	.st233{clip-path:url(#SVGID_460_);enable-background:new    ;}
	.st234{clip-path:url(#SVGID_462_);}
	.st235{clip-path:url(#SVGID_464_);fill:none;stroke:#000000;stroke-width:10;stroke-miterlimit:10;}
	.st236{clip-path:url(#SVGID_466_);}
	.st237{clip-path:url(#SVGID_468_);}
	.st238{clip-path:url(#SVGID_470_);}
	.st239{clip-path:url(#SVGID_472_);}
</style>
<g>
	<g>
		<defs>
			<path id="SVGID_1_" d="M30.9,47.5C30.9,47.5,30.9,47.5,30.9,47.5L30.9,47.5C30.9,47.5,30.9,47.5,30.9,47.5L30.9,47.5
				C30.9,47.5,30.9,47.5,30.9,47.5C30.9,47.5,30.9,47.5,30.9,47.5C30.9,47.5,30.9,47.5,30.9,47.5C30.9,47.5,30.9,47.5,30.9,47.5"/>
		</defs>
		<clipPath id="SVGID_2_">
			<use xlink:href="#SVGID_1_"  style="overflow:visible;"/>
		</clipPath>
		<g class="st0">
			<defs>
				<rect id="SVGID_3_" x="-316" y="-2757" width="1440" height="7509"/>
			</defs>
			<clipPath id="SVGID_4_">
				<use xlink:href="#SVGID_3_"  style="overflow:visible;"/>
			</clipPath>
			<rect x="25.9" y="42.5" class="st1" width="10" height="10"/>
		</g>
	</g>
	<g>
		<defs>
			<path id="SVGID_5_" d="M35.3,28.6c0,0.1,0.1,0.1,0.1,0.2c0,0.1,0.1,0.1,0.1,0.2c0,0,0,0,0,0.1c0,0,0,0,0.1,0
				c0-0.1-0.1-0.2-0.1-0.2c-0.1-0.2-0.2-0.3-0.3-0.5c0-0.1-0.1-0.2-0.1-0.3C35,28,35,28,35,27.9c0,0,0,0,0,0c0,0,0,0,0,0
				c0.1,0.2,0.2,0.3,0.3,0.5C35.2,28.5,35.2,28.6,35.3,28.6"/>
		</defs>
		<clipPath id="SVGID_6_">
			<use xlink:href="#SVGID_5_"  style="overflow:visible;"/>
		</clipPath>
		<g class="st2">
			<defs>
				<rect id="SVGID_7_" x="-316" y="-2757" width="1440" height="7509"/>
			</defs>
			<clipPath id="SVGID_8_">
				<use xlink:href="#SVGID_7_"  style="overflow:visible;"/>
			</clipPath>
			<rect x="29.9" y="22.9" class="st3" width="10.7" height="11.2"/>
		</g>
	</g>
	<g>
		<defs>
			<polyline id="SVGID_9_" points="30,32.6 30,32.6 30,32.6 30,32.6 			"/>
		</defs>
		<clipPath id="SVGID_10_">
			<use xlink:href="#SVGID_9_"  style="overflow:visible;"/>
		</clipPath>
		<g class="st4">
			<defs>
				<rect id="SVGID_11_" x="-316" y="-2757" width="1440" height="7509"/>
			</defs>
			<clipPath id="SVGID_12_">
				<use xlink:href="#SVGID_11_"  style="overflow:visible;"/>
			</clipPath>
			<rect x="25" y="27.6" class="st5" width="10" height="10"/>
		</g>
	</g>
	<g>
		<defs>
			<path id="SVGID_13_" d="M31.1,31.8C31.1,31.8,31.1,31.8,31.1,31.8C31.1,31.8,31.1,31.8,31.1,31.8C31.1,31.8,31.1,31.8,31.1,31.8"
				/>
		</defs>
		<clipPath id="SVGID_14_">
			<use xlink:href="#SVGID_13_"  style="overflow:visible;"/>
		</clipPath>
		<g class="st6">
			<defs>
				<rect id="SVGID_15_" x="-316" y="-2757" width="1440" height="7509"/>
			</defs>
			<clipPath id="SVGID_16_">
				<use xlink:href="#SVGID_15_"  style="overflow:visible;"/>
			</clipPath>
			<rect x="26" y="26.8" class="st7" width="10" height="10"/>
		</g>
	</g>
	<g>
		<defs>
			<polyline id="SVGID_17_" points="30.9,47.5 30.9,47.5 30.9,47.5 30.9,47.5 			"/>
		</defs>
		<clipPath id="SVGID_18_">
			<use xlink:href="#SVGID_17_"  style="overflow:visible;"/>
		</clipPath>
		<g class="st8">
			<defs>
				<rect id="SVGID_19_" x="-316" y="-2757" width="1440" height="7509"/>
			</defs>
			<clipPath id="SVGID_20_">
				<use xlink:href="#SVGID_19_"  style="overflow:visible;"/>
			</clipPath>
			<rect x="25.9" y="42.5" class="st9" width="10" height="10"/>
		</g>
	</g>
	<g>
		<defs>
			<path id="SVGID_21_" d="M38.2,21.5C38.2,21.5,38.2,21.5,38.2,21.5C38.2,21.5,38.2,21.5,38.2,21.5C38.2,21.5,38.2,21.5,38.2,21.5"
				/>
		</defs>
		<clipPath id="SVGID_22_">
			<use xlink:href="#SVGID_21_"  style="overflow:visible;"/>
		</clipPath>
		<g class="st10">
			<defs>
				<rect id="SVGID_23_" x="-316" y="-2757" width="1440" height="7509"/>
			</defs>
			<clipPath id="SVGID_24_">
				<use xlink:href="#SVGID_23_"  style="overflow:visible;"/>
			</clipPath>
			<rect x="33.2" y="16.5" class="st11" width="10" height="10"/>
		</g>
	</g>
	<g>
		<defs>
			<path id="SVGID_25_" d="M23.2,18.3C23.2,18.3,23.2,18.3,23.2,18.3C23.2,18.3,23.2,18.3,23.2,18.3C23.2,18.3,23.2,18.3,23.2,18.3"
				/>
		</defs>
		<clipPath id="SVGID_26_">
			<use xlink:href="#SVGID_25_"  style="overflow:visible;"/>
		</clipPath>
		<g class="st12">
			<defs>
				<rect id="SVGID_27_" x="-316" y="-2757" width="1440" height="7509"/>
			</defs>
			<clipPath id="SVGID_28_">
				<use xlink:href="#SVGID_27_"  style="overflow:visible;"/>
			</clipPath>
			<rect x="18.2" y="13.3" class="st13" width="10" height="10"/>
		</g>
	</g>
	<g>
		<defs>
			<path id="SVGID_29_" d="M29.5,45.8C29.5,45.8,29.5,45.9,29.5,45.8C29.5,45.9,29.5,45.9,29.5,45.8C29.5,45.9,29.6,45.9,29.5,45.8
				C29.5,45.9,29.5,45.9,29.5,45.8C29.5,45.8,29.5,45.8,29.5,45.8"/>
		</defs>
		<clipPath id="SVGID_30_">
			<use xlink:href="#SVGID_29_"  style="overflow:visible;"/>
		</clipPath>
		<g class="st14">
			<defs>
				<rect id="SVGID_31_" x="-316" y="-2757" width="1440" height="7509"/>
			</defs>
			<clipPath id="SVGID_32_">
				<use xlink:href="#SVGID_31_"  style="overflow:visible;"/>
			</clipPath>
			<rect x="24.5" y="40.8" class="st15" width="10" height="10.1"/>
		</g>
	</g>
	<g>
		<defs>
			<path id="SVGID_33_" d="M30,47C30,47,29.9,47,30,47C30,47,30,47,30,47C30,47,30,47,30,47C30,47,30,47,30,47C30,47,30,47,30,47"/>
		</defs>
		<clipPath id="SVGID_34_">
			<use xlink:href="#SVGID_33_"  style="overflow:visible;"/>
		</clipPath>
		<g class="st16">
			<defs>
				<rect id="SVGID_35_" x="-316" y="-2757" width="1440" height="7509"/>
			</defs>
			<clipPath id="SVGID_36_">
				<use xlink:href="#SVGID_35_"  style="overflow:visible;"/>
			</clipPath>
			<rect x="24.9" y="42" class="st17" width="10.1" height="10"/>
		</g>
	</g>
	<g>
		<defs>
			<path id="SVGID_37_" d="M38.2,21.5C38.2,21.5,38.2,21.5,38.2,21.5C38.2,21.5,38.2,21.5,38.2,21.5C38.2,21.5,38.2,21.5,38.2,21.5"
				/>
		</defs>
		<clipPath id="SVGID_38_">
			<use xlink:href="#SVGID_37_"  style="overflow:visible;"/>
		</clipPath>
		<g class="st18">
			<defs>
				<rect id="SVGID_39_" x="-316" y="-2757" width="1440" height="7509"/>
			</defs>
			<clipPath id="SVGID_40_">
				<use xlink:href="#SVGID_39_"  style="overflow:visible;"/>
			</clipPath>
			<rect x="33.2" y="16.5" class="st19" width="10" height="10"/>
		</g>
	</g>
	<g>
		<defs>
			<path id="SVGID_41_" d="M24.5,19.4l0-0.2c0,0,0-0.1,0-0.1C24.4,19.2,24.4,19.3,24.5,19.4C24.4,19.4,24.4,19.4,24.5,19.4"/>
		</defs>
		<clipPath id="SVGID_42_">
			<use xlink:href="#SVGID_41_"  style="overflow:visible;"/>
		</clipPath>
		<g class="st20">
			<defs>
				<rect id="SVGID_43_" x="-316" y="-2757" width="1440" height="7509"/>
			</defs>
			<clipPath id="SVGID_44_">
				<use xlink:href="#SVGID_43_"  style="overflow:visible;"/>
			</clipPath>
			<rect x="19.4" y="14" class="st21" width="10.1" height="10.4"/>
		</g>
	</g>
	<g>
		<defs>
			<path id="SVGID_45_" d="M24.3,15.1C24.3,15.1,24.3,15.1,24.3,15.1C24.3,15.1,24.3,15.1,24.3,15.1C24.3,15.1,24.3,15.1,24.3,15.1"
				/>
		</defs>
		<clipPath id="SVGID_46_">
			<use xlink:href="#SVGID_45_"  style="overflow:visible;"/>
		</clipPath>
		<g class="st22">
			<defs>
				<rect id="SVGID_47_" x="-316" y="-2757" width="1440" height="7509"/>
			</defs>
			<clipPath id="SVGID_48_">
				<use xlink:href="#SVGID_47_"  style="overflow:visible;"/>
			</clipPath>
			<rect x="19.3" y="10.1" class="st23" width="10" height="10"/>
		</g>
	</g>
	<g>
		<defs>
			<rect id="SVGID_49_" x="3" y="2" width="55" height="55"/>
		</defs>
		<clipPath id="SVGID_50_">
			<use xlink:href="#SVGID_49_"  style="overflow:visible;"/>
		</clipPath>
		<g class="st24">
			<defs>
				<rect id="SVGID_51_" x="-316" y="-2757" width="1440" height="7509"/>
			</defs>
			<clipPath id="SVGID_52_">
				<use xlink:href="#SVGID_51_"  style="overflow:visible;"/>
			</clipPath>
			<g class="st25">
				<g>
					<defs>
						<rect id="SVGID_53_" x="3" y="2" width="56" height="56"/>
					</defs>
					<clipPath id="SVGID_54_">
						<use xlink:href="#SVGID_53_"  style="overflow:visible;"/>
					</clipPath>
					<g class="st26">
						<defs>
							<path id="SVGID_55_" d="M30.5,57C45.7,57,58,44.7,58,29.5C58,14.3,45.7,2,30.5,2S3,14.3,3,29.5C3,44.7,15.3,57,30.5,57
								 M22.3,16.8c0.1-0.1,0.1-0.2,0.2-0.2c0.1-0.1,0.1-0.2,0.2-0.3c0,0,0,0,0.1-0.1c0,0,0,0,0,0c0,0,0,0,0,0c0,0,0,0,0,0
								c0,0,0,0,0,0c0,0,0,0,0,0c0,0,0-0.1,0-0.1c0-0.1,0-0.1,0-0.2c0-0.1,0-0.1,0.1-0.2c0,0,0,0,0,0c0,0,0,0,0,0c0,0,0,0,0,0
								c0,0,0.1,0,0.1-0.1c0,0,0,0,0,0c0,0,0,0,0,0c0-0.1,0.1-0.1,0.1-0.2c0,0,0,0,0.1-0.1c0,0,0.1,0,0.1,0c0,0,0,0,0,0c0,0,0,0,0,0
								c0,0,0,0,0,0c0,0,0-0.1,0.1-0.1c0,0,0,0,0.1-0.1c0,0,0.1-0.1,0.1-0.1c0.1,0,0.1,0,0.2-0.1c0,0,0.1,0,0.1,0c0,0,0,0,0,0
								c0,0,0,0,0-0.1c0,0,0.1-0.1,0.1-0.1c0,0,0.1-0.1,0.1-0.1c0,0,0.1,0,0.1,0c0,0,0.1,0,0.1,0c0,0,0,0,0.1,0c0,0,0,0,0.1,0
								c0.1,0,0.2,0.1,0.3,0.2c0.1,0.1,0.1,0.1,0.2,0.2c0,0,0,0,0,0.1c0,0,0,0,0,0c0,0,0,0,0,0l1.1-0.1c0,0,0,0,0-0.1
								c-0.1-0.1-0.1-0.3-0.2-0.4c-0.1-0.2-0.1-0.4-0.2-0.6c0-0.1,0-0.2,0-0.3c0-0.1,0-0.2,0-0.3c0-0.2,0-0.4,0.1-0.6
								c0-0.1,0.1-0.3,0.1-0.4c0-0.1,0.1-0.2,0.2-0.2c0.1-0.2,0.3-0.3,0.5-0.4c0.2-0.1,0.4-0.2,0.6-0.3c0.1,0,0.2-0.1,0.3-0.1
								c0.1,0,0.2,0,0.3-0.1c0.2,0,0.3,0,0.5,0c0,0,0.1,0,0.1,0c0.2,0,0.4,0.1,0.6,0.2c0.2,0.1,0.3,0.2,0.5,0.3
								c0.1,0.1,0.3,0.3,0.4,0.4c0,0.1,0.1,0.1,0.1,0.2c0,0.1,0.1,0.1,0.1,0.2c0,0.1,0.1,0.1,0.1,0.2c0,0.1,0.1,0.1,0.1,0.2
								c0,0.1,0.1,0.2,0.1,0.3c0,0.1,0,0.1,0,0.2c0,0,0,0,0,0c0,0,0,0.1,0,0.1c0,0,0,0,0,0c0,0,0,0,0,0.1c0,0.1,0,0.1,0.1,0.2
								c0.1,0.1,0.1,0.3,0.2,0.4c0,0.1,0,0.1,0,0.2c0,0,0,0.1,0,0.1l6.6-0.8c0,0,0,0,0,0c0,0,0-0.1,0-0.1c0.1-0.1,0.2-0.2,0.3-0.2
								c0,0,0,0,0.1-0.1c0,0,0.1,0,0.1-0.1c0,0,0,0,0,0c0,0,0.1,0,0.1,0c0,0,0.1,0,0.1,0c0,0,0,0,0,0c0,0,0.1,0,0.1,0.1
								c0,0,0,0,0,0.1c0.1,0,0.1,0,0.2-0.1c0.1,0,0.1,0,0.2,0c0,0,0.1,0,0.1,0c0,0,0.1,0,0.1,0.1c0,0,0,0,0.1,0.1c0,0,0,0,0.1,0
								c0,0,0.1,0,0.1,0c0,0,0.1,0,0.1,0.1c0,0,0,0.1,0.1,0.1c0,0,0,0,0,0.1c0,0,0.1,0,0.1,0c0,0,0.1,0.1,0.1,0.1
								c0,0,0.1,0.1,0.1,0.1c0,0,0,0,0,0.1c0,0,0,0.1,0,0.1c0,0,0,0,0,0c0,0,0,0,0,0c0.1,0.1,0.2,0.2,0.4,0.3c0.1,0,0.1,0.1,0.2,0.1
								c0,0,0.1,0,0.1,0.1c0,0,0.1,0.1,0,0.1c0,0,0,0.1,0,0.1c0,0,0,0,0,0c0,0.1-0.1,0.1-0.1,0.2c0,0.1,0,0.1-0.1,0.2c0,0,0,0,0,0
								c0,0,0,0,0,0c0,0,0,0.1-0.1,0.1c0,0-0.1,0-0.1,0c0,0,0,0,0,0c0,0,0,0,0,0c0,0-0.1,0-0.1,0c0,0-0.1,0-0.1-0.1
								c-0.1,0-0.1-0.1-0.2-0.1c-0.1-0.1-0.2-0.1-0.3-0.2c0,0,0,0,0,0c0,0.2,0,0.3-0.1,0.5c0,0.1-0.1,0.2-0.1,0.3
								c0,0.1-0.1,0.2-0.2,0.3c0,0-0.1,0.1-0.2,0.1c0,0-0.1,0-0.1,0c0,0,0,0,0,0c0,0.2,0,0.4,0,0.6c0,0.2,0,0.4,0,0.6
								c0,0.2,0,0.4,0,0.6c0,0.4,0.1,0.8,0.1,1.2c0,0.2,0,0.4,0,0.6c0,0.2,0,0.4,0,0.6c0,0.2-0.1,0.4-0.1,0.6
								c-0.1,0.2-0.1,0.4-0.1,0.6l0,0c0,0.1,0,0.3,0,0.4c0,0.1,0,0.2,0,0.3c0,0.1,0,0.2-0.1,0.3c0,0,0,0.1,0,0.1c0,0,0,0.1-0.1,0.1
								c-0.1,0.1-0.2,0.2-0.3,0.2c-0.1,0.1-0.2,0.1-0.3,0.1c-0.1,0-0.2,0.1-0.3,0.1c-0.1,0-0.2,0-0.3,0.1c-0.1,0-0.2,0-0.3,0
								c-0.1,0-0.2,0-0.3,0c-0.2,0-0.4,0-0.6,0c-0.2,0-0.4,0-0.7-0.1c-0.2,0-0.4-0.1-0.6-0.1c-0.1,0-0.2,0-0.3-0.1
								c-0.1,0-0.1,0-0.2,0c0,0,0,0,0,0c0,0.1,0.1,0.2,0.1,0.3c0,0.1,0,0.1,0,0.2c0,0.1,0,0.1,0,0.2c0,0.1,0,0.2,0,0.2
								c0,0,0,0.1,0,0.1c0,0.1,0,0.1,0,0.2c0,0.1,0.1,0.1,0.1,0.2c0,0.1,0,0.2,0,0.2c0,0,0,0.1,0,0.1c0,0,0,0.1,0,0.1
								c0,0,0,0.1,0,0.1c0,0,0,0,0,0.1c0,0.1,0.1,0.1,0.1,0.1c0,0,0,0,0,0c0.3,0.3,0.5,0.6,0.7,1c0,0.1,0.1,0.2,0.1,0.3
								c0,0.1,0,0.2,0.1,0.3c0,0.2,0,0.4,0.1,0.6c0,0,0,0.1,0,0.1c0,0,0,0.1,0,0.1c0,0.1,0.1,0.2,0.1,0.2c0.1,0.2,0.2,0.4,0.3,0.6
								c0.1,0.2,0.2,0.3,0.3,0.5c0.1,0.2,0.2,0.3,0.3,0.5c0.1,0.2,0.2,0.3,0.3,0.5c0.1,0.2,0.2,0.4,0.3,0.5c0.1,0.1,0.1,0.3,0.2,0.4
								c0.1,0.3,0.3,0.5,0.4,0.8c0,0,0,0.1,0,0.1c0,0.1,0.1,0.2,0.1,0.3c0.1,0.2,0.2,0.4,0.3,0.6c0.1,0.1,0.1,0.3,0.2,0.4
								c0.1,0.1,0.1,0.3,0.1,0.4c0,0.2,0.1,0.3,0.1,0.5c0,0.1,0,0.3,0,0.4c0,0.2,0,0.4,0,0.6c0,0.1,0,0.2,0,0.3c0,0.1,0,0.2-0.1,0.3
								c0,0.1,0,0.2-0.1,0.3c0,0.1,0,0.2-0.1,0.3c0,0.1-0.1,0.2-0.1,0.3c0,0.1,0,0.2-0.1,0.2c0,0.2,0,0.5,0,0.7c0,0.2,0,0.4,0,0.6
								c0,0.1,0,0.2-0.1,0.3c0,0.1-0.1,0.2-0.1,0.3c0,0.1-0.1,0.2-0.1,0.3c0,0.1-0.1,0.1-0.1,0.2c0,0.1-0.1,0.1-0.1,0.1
								c-0.1,0.1-0.2,0.2-0.3,0.2c-0.1,0.1-0.3,0.1-0.4,0.2c0,0,0,0-0.1,0c-0.1,0-0.1,0.1-0.2,0.1c0,0-0.1,0-0.1,0
								c-0.1,0.1-0.2,0.2-0.4,0.3c-0.1,0-0.1,0.1-0.2,0.1c0,0,0,0-0.1,0.1c-0.1,0.1-0.2,0.1-0.3,0.2c-0.1,0.1-0.2,0.1-0.3,0.2
								c-0.2,0.1-0.3,0.2-0.5,0.3c-0.1,0-0.2,0.1-0.3,0.1c-0.1,0-0.2,0.1-0.3,0.1c-0.2,0.1-0.4,0.1-0.5,0.2
								c-0.1,0.1-0.3,0.1-0.4,0.2c-0.1,0-0.1,0-0.2,0.1c-0.1,0-0.1,0-0.2,0.1c-0.1,0-0.1,0-0.2,0.1c0,0,0,0-0.1,0
								c-0.1,0.3-0.3,0.5-0.4,0.8c-0.1,0.1-0.1,0.2-0.2,0.4c-0.1,0.1-0.1,0.2-0.2,0.4c0,0.1-0.1,0.2-0.1,0.3c0,0.1,0,0.2-0.1,0.3
								c0,0.1,0,0.2,0,0.3c0,0.1,0,0.2,0,0.4c0,0.1,0,0.3,0,0.4c0,0.1,0,0.2,0,0.4c0,0.1,0,0.1,0,0.2c0,0.1,0,0.1,0.1,0.2
								c0,0,0,0.1,0.1,0.1c0,0.1,0.1,0.1,0.1,0.2c0,0.1,0.1,0.2,0.1,0.3c0,0.1,0,0.2,0.1,0.4c0,0.1,0,0.2,0.1,0.3c0,0,0,0,0,0.1
								c0,0,0,0.1,0.1,0.1c0,0.1,0.1,0.1,0.1,0.2c0.1,0.1,0.1,0.3,0.1,0.5c0,0.1,0,0.1,0,0.2c0,0,0,0.1-0.1,0.1c0,0-0.1,0.1-0.1,0.1
								s-0.1,0-0.1,0.1c0,0-0.1,0-0.1,0c-0.1,0-0.1,0-0.1,0c0,0-0.1,0-0.1-0.1c-0.1,0-0.1-0.1-0.2-0.2c0,0,0,0-0.1-0.1c0,0,0,0,0,0
								c0,0-0.1,0-0.1,0c-0.1,0-0.1-0.1-0.2-0.1c0,0,0-0.1-0.1-0.1c0,0,0,0,0,0c0,0,0,0-0.1,0c0,0,0,0,0,0c0,0-0.1,0-0.1,0
								c0,0-0.1,0-0.1-0.1c0,0,0,0,0-0.1l0,0c0,0,0,0,0,0c0,0-0.1,0-0.2,0c0,0-0.1,0-0.1,0c0,0,0,0,0,0c0,0,0,0,0,0c0,0,0,0-0.1,0
								c0,0-0.1,0-0.1-0.1c0,0-0.1,0-0.1-0.1c0,0-0.1-0.1-0.1-0.1c0-0.1-0.1-0.2-0.1-0.3c0,0,0-0.1,0-0.1c0,0,0-0.1,0-0.1
								c0,0,0,0,0-0.1c0,0,0-0.1-0.1-0.1c0,0,0-0.1-0.1-0.2c0-0.1,0-0.1-0.1-0.2c0-0.1-0.1-0.3-0.1-0.4c0-0.2-0.1-0.3-0.1-0.5
								c0-0.1,0-0.3,0-0.4c0-0.1,0-0.3-0.1-0.4c0,0,0,0.1,0,0.1c0,0.1,0,0.2,0,0.2c0,0.2,0,0.4,0,0.6c0,0.2,0,0.4,0,0.6
								c0,0.1,0,0.2-0.1,0.2c0,0.1,0,0.1-0.1,0.2c0,0,0,0.1-0.1,0.1c0,0-0.1,0-0.1,0.1c0,0,0,0-0.1,0c0,0-0.1,0-0.1,0
								c-0.1,0-0.1,0-0.2,0c0,0-0.1,0-0.1,0c-0.1,0-0.1,0-0.2-0.1c0,0-0.1,0-0.1,0c-0.1,0-0.1,0-0.2-0.1c-0.1,0-0.1-0.1-0.2-0.1
								c-0.1-0.1-0.2-0.2-0.2-0.3c0-0.1,0-0.2-0.1-0.3c0-0.1,0-0.1,0-0.2c0-0.1-0.1-0.2-0.1-0.3c0-0.1-0.1-0.2-0.1-0.3
								c0-0.1,0-0.2,0-0.2c0-0.1,0-0.2,0-0.2c0-0.1,0.1-0.2,0.1-0.3c0.1-0.1,0.1-0.2,0.2-0.3c0,0,0-0.1,0-0.1c0,0,0-0.1,0-0.1
								c0-0.1,0-0.2-0.1-0.3c0-0.1-0.1-0.1-0.1-0.2c0-0.1-0.1-0.2-0.1-0.2c0-0.1,0-0.1,0-0.2c0-0.1,0-0.2,0-0.4c0-0.1,0-0.1,0.1-0.2
								c0,0,0-0.1,0-0.1c0,0,0.1-0.1,0.1-0.1c0.2-0.2,0.4-0.2,0.6-0.3c0.2,0,0.3,0,0.5,0c0,0,0,0,0.1,0c0.2-0.1,0.3-0.1,0.5-0.2
								c0.1,0,0.2-0.1,0.2-0.1c0.1-0.1,0.1-0.1,0.2-0.2c0.1-0.1,0.2-0.2,0.3-0.3c0.1,0,0.1-0.1,0.1-0.1c0,0,0.1-0.1,0.1-0.1
								c0,0,0.1-0.1,0.1-0.1c0-0.1,0.1-0.2,0.1-0.3c0-0.1,0.1-0.3,0.1-0.4c0.1-0.2,0.1-0.3,0.2-0.5c0.1-0.2,0.2-0.3,0.3-0.4
								c0,0,0,0,0.1,0c0,0,0,0,0,0c0.1-0.1,0.1-0.2,0.2-0.2c0.1-0.1,0.2-0.1,0.2-0.2c0.2-0.1,0.3-0.2,0.5-0.3c0,0,0.1-0.1,0.1-0.1
								c0,0,0.1,0,0.1-0.1c0.1,0,0.1-0.1,0.2-0.1c0,0,0,0,0,0c-0.1-0.1-0.2-0.2-0.3-0.3c-0.1-0.1-0.2-0.2-0.3-0.3
								c-0.1-0.1-0.1-0.2-0.2-0.2c-0.1-0.1-0.1-0.2-0.2-0.3c-0.1-0.2-0.2-0.3-0.3-0.5c-0.1-0.2-0.2-0.4-0.3-0.6
								c-0.1-0.2-0.1-0.4-0.2-0.6c0,0,0,0,0,0c0-0.1-0.1-0.2-0.1-0.3c0-0.1-0.1-0.2-0.1-0.4c0-0.1,0-0.2-0.1-0.4c0-0.1,0-0.2,0-0.4
								c0,0,0,0,0,0c-0.1-0.1-0.2-0.2-0.3-0.2c-0.1-0.1-0.2-0.2-0.3-0.3c-0.1-0.1-0.2-0.2-0.2-0.3c-0.1-0.1-0.1-0.2-0.2-0.3
								c0-0.1-0.1-0.2-0.1-0.2c0-0.1-0.1-0.2-0.1-0.3c-0.1-0.2-0.1-0.3-0.1-0.5c0-0.2-0.1-0.4-0.1-0.5c0-0.2-0.1-0.4-0.1-0.5
								c0-0.2-0.1-0.4,0-0.6c0-0.2,0-0.4,0.1-0.6c0-0.2,0.1-0.4,0.1-0.6c0-0.1,0-0.2,0.1-0.3c0-0.1,0-0.2,0.1-0.3c0-0.1,0-0.1,0-0.2
								c0-0.1,0-0.1,0-0.2c0-0.1,0-0.1,0-0.2c0-0.1,0-0.1-0.1-0.2c-0.1-0.2-0.3-0.4-0.4-0.7c-0.1-0.2-0.3-0.3-0.5-0.5
								c-0.1-0.1-0.2-0.2-0.2-0.3c-0.1-0.1-0.2-0.2-0.3-0.3c-0.3-0.3-0.5-0.6-0.8-0.9c-0.1-0.1-0.1-0.1-0.2-0.2
								c-0.1-0.1-0.1-0.2-0.2-0.3c-0.1-0.1-0.1-0.2-0.2-0.3c-0.1,0.1-0.2,0.2-0.3,0.3c-0.1,0.1-0.3,0.1-0.4,0.2
								c-0.2,0-0.4,0.1-0.5,0.1c-0.1,0-0.2,0-0.4-0.1c-0.1,0-0.1-0.1-0.2-0.1c-0.1,0-0.1-0.1-0.2-0.1c-0.1,0-0.1-0.1-0.2-0.1
								c-0.1,0-0.1-0.1-0.2-0.1c0,0-0.1-0.1-0.1-0.1c0-0.1-0.1-0.2-0.1-0.2c0-0.1-0.1-0.2-0.1-0.3c0-0.1,0-0.2,0-0.3
								c0-0.2-0.1-0.4-0.1-0.6c0-0.1,0-0.2,0-0.3c0-0.1,0-0.2,0-0.3c0-0.4,0-0.8,0-1.1c0-0.2,0-0.4,0.1-0.6c0-0.2,0.1-0.4,0.1-0.5
								c0-0.1,0-0.2,0-0.3c0-0.1,0-0.2,0-0.3v0c0,0,0,0,0,0c0,0,0-0.1,0-0.1c0,0,0-0.1,0-0.1c0-0.1,0-0.1,0-0.2c0-0.1,0-0.1,0-0.2
								c0-0.1,0-0.2,0-0.3c0-0.1,0-0.2,0-0.3c0,0,0,0,0,0c0,0,0,0,0,0c0,0.1-0.1,0.2-0.2,0.2c-0.1,0.1-0.1,0.2-0.2,0.2
								c0,0,0,0-0.1,0.1c0,0,0,0-0.1,0c0,0-0.1,0-0.1,0c0,0,0,0-0.1,0c0,0,0,0,0-0.1c0,0,0-0.1-0.1-0.1c0,0,0-0.1-0.1-0.1
								c0,0-0.1-0.1-0.1-0.2c0,0,0,0,0-0.1c0,0,0-0.1,0-0.1C22.2,17,22.3,16.9,22.3,16.8"/>
						</defs>
						<clipPath id="SVGID_56_">
							<use xlink:href="#SVGID_55_"  style="overflow:visible;"/>
						</clipPath>
						<g class="st27">
							<defs>
								<rect id="SVGID_57_" x="3" y="2" width="55" height="55"/>
							</defs>
							<clipPath id="SVGID_58_">
								<use xlink:href="#SVGID_57_"  style="overflow:visible;"/>
							</clipPath>
							<rect x="-2" y="-3" class="st28" width="65" height="65"/>
						</g>
					</g>
				</g>
			</g>
		</g>
	</g>
	<g>
		<defs>
			<path id="SVGID_59_" d="M24.5,18.9c0,0.1,0,0.2,0,0.3c0,0,0,0,0,0c0.1-0.1,0.2-0.2,0.3-0.4c0.1-0.1,0.2-0.2,0.3-0.3
				c0.1-0.1,0.1-0.1,0.2-0.2c0,0,0.1-0.1,0.1-0.1c0.1,0,0.1-0.1,0.2-0.2c0.1-0.1,0.1-0.1,0.2-0.2c0.1-0.1,0.1-0.2,0.2-0.2
				s0.1-0.2,0.1-0.3c0-0.1,0.1-0.2,0.2-0.2c0.1-0.1,0.1-0.1,0.2-0.2c0.1-0.1,0.1-0.2,0.2-0.3c0,0,0-0.1,0-0.1c0-0.1,0-0.1,0-0.2
				c0-0.2-0.1-0.4-0.1-0.5c0,0,0-0.1,0-0.1l-1.1,0.1c0,0.1,0,0.1,0,0.2c0,0.1,0,0.1,0,0.2c0,0.1,0,0.1-0.1,0.2
				c0,0.1-0.1,0.1-0.1,0.2c0,0.1-0.1,0.1-0.1,0.2c0,0.1-0.1,0.1-0.1,0.2c-0.1,0.1-0.1,0.2-0.2,0.3c-0.1,0.1-0.1,0.1-0.1,0.2
				c0,0.1-0.1,0.2-0.1,0.2c0,0.1-0.1,0.2-0.1,0.3c0,0.1,0,0.2,0,0.4c0,0.1,0,0.2,0,0.3C24.5,18.7,24.5,18.8,24.5,18.9"/>
		</defs>
		<clipPath id="SVGID_60_">
			<use xlink:href="#SVGID_59_"  style="overflow:visible;"/>
		</clipPath>
		<g class="st29">
			<defs>
				<rect id="SVGID_61_" x="-316" y="-2757" width="1440" height="7509"/>
			</defs>
			<clipPath id="SVGID_62_">
				<use xlink:href="#SVGID_61_"  style="overflow:visible;"/>
			</clipPath>
			<rect x="19.5" y="10.7" class="st30" width="12.2" height="13.5"/>
		</g>
	</g>
	<g>
		<defs>
			<path id="SVGID_63_" d="M29.8,16.6C29.8,16.6,29.8,16.6,29.8,16.6c0,0.1,0,0.1,0,0.2c0,0,0,0.1,0.1,0.1c0,0,0,0.1,0.1,0.1
				c0.1,0.1,0.1,0.2,0.2,0.2c0.1,0.1,0.2,0.2,0.3,0.3c0,0,0,0,0,0c0.2,0,0.4,0,0.5,0.1c0.2,0,0.4,0,0.6,0.1c0.2,0,0.4,0,0.6,0.1
				c0.2,0,0.4,0.1,0.6,0.1c0.2,0.1,0.4,0.1,0.5,0.2c0.3,0.2,0.7,0.4,1,0.6c0.1,0.1,0.2,0.1,0.2,0.2c0.1,0.1,0.2,0.1,0.3,0.2
				c0.1,0.1,0.3,0.2,0.4,0.4c0.1,0.1,0.2,0.1,0.3,0.2c0.1,0.1,0.2,0.1,0.3,0.2c0-0.1,0.1-0.3,0.2-0.4c0.1-0.2,0.2-0.3,0.2-0.5
				c0.1-0.2,0.2-0.3,0.2-0.5c0-0.1,0.1-0.2,0.1-0.3c0-0.1,0-0.1,0.1-0.2c0-0.1,0-0.1,0.1-0.2c0.1-0.2,0.1-0.4,0.2-0.7
				c0-0.2,0-0.4,0-0.5c0-0.2,0-0.3,0-0.5c0-0.1-0.1-0.3-0.1-0.4c0-0.1,0-0.2-0.1-0.4c0-0.1,0-0.1,0-0.2c0-0.1,0-0.1,0-0.2
				c0-0.1,0-0.1,0-0.2c0-0.1,0-0.1,0-0.2l-6.1,0.8c0,0,0,0,0,0c0,0.1,0,0.1,0.1,0.2c0,0.1,0,0.2,0,0.3c0,0.1,0,0.1-0.1,0.2
				c0,0.1-0.1,0.2-0.2,0.2c-0.1,0.1-0.3,0.2-0.4,0.2c0,0,0,0-0.1,0c0,0,0,0,0,0.1C29.8,16.5,29.8,16.5,29.8,16.6"/>
		</defs>
		<clipPath id="SVGID_64_">
			<use xlink:href="#SVGID_63_"  style="overflow:visible;"/>
		</clipPath>
		<g class="st31">
			<defs>
				<rect id="SVGID_65_" x="-316" y="-2757" width="1440" height="7509"/>
			</defs>
			<clipPath id="SVGID_66_">
				<use xlink:href="#SVGID_65_"  style="overflow:visible;"/>
			</clipPath>
			<rect x="24.7" y="9.4" class="st32" width="17" height="15.4"/>
		</g>
	</g>
	<g>
		<defs>
			<path id="SVGID_67_" d="M26.7,11.9C26.7,11.9,26.7,11.9,26.7,11.9C26.7,11.9,26.7,11.9,26.7,11.9c-0.1,0.1-0.2,0.1-0.2,0.2
				c0,0-0.1,0.1-0.1,0.1c0,0,0,0,0,0.1c0,0,0.1,0,0.1,0C26.5,12.1,26.6,12,26.7,11.9"/>
		</defs>
		<clipPath id="SVGID_68_">
			<use xlink:href="#SVGID_67_"  style="overflow:visible;"/>
		</clipPath>
		<g class="st33">
			<defs>
				<rect id="SVGID_69_" x="-316" y="-2757" width="1440" height="7509"/>
			</defs>
			<clipPath id="SVGID_70_">
				<use xlink:href="#SVGID_69_"  style="overflow:visible;"/>
			</clipPath>
			<rect x="21.3" y="6.9" class="st34" width="10.4" height="10.4"/>
		</g>
	</g>
	<g>
		<defs>
			<path id="SVGID_71_" d="M27,11.7C27,11.7,27,11.8,27,11.7C27,11.8,27,11.7,27,11.7C27.1,11.7,27.1,11.7,27,11.7"/>
		</defs>
		<clipPath id="SVGID_72_">
			<use xlink:href="#SVGID_71_"  style="overflow:visible;"/>
		</clipPath>
		<g class="st35">
			<defs>
				<rect id="SVGID_73_" x="-316" y="-2757" width="1440" height="7509"/>
			</defs>
			<clipPath id="SVGID_74_">
				<use xlink:href="#SVGID_73_"  style="overflow:visible;"/>
			</clipPath>
			<rect x="22" y="6.7" class="st36" width="10.1" height="10"/>
		</g>
	</g>
	<g>
		<defs>
			<path id="SVGID_75_" d="M26.8,11.9C26.8,11.9,26.8,11.9,26.8,11.9C26.8,11.9,26.8,11.8,26.8,11.9C26.8,11.8,26.8,11.9,26.8,11.9"
				/>
		</defs>
		<clipPath id="SVGID_76_">
			<use xlink:href="#SVGID_75_"  style="overflow:visible;"/>
		</clipPath>
		<g class="st37">
			<defs>
				<rect id="SVGID_77_" x="-316" y="-2757" width="1440" height="7509"/>
			</defs>
			<clipPath id="SVGID_78_">
				<use xlink:href="#SVGID_77_"  style="overflow:visible;"/>
			</clipPath>
			<rect x="21.8" y="6.8" class="st38" width="10.1" height="10.1"/>
		</g>
	</g>
	<g>
		<defs>
			<path id="SVGID_79_" d="M28.5,11.6C28.5,11.6,28.5,11.6,28.5,11.6C28.5,11.5,28.5,11.5,28.5,11.6C28.5,11.5,28.5,11.6,28.5,11.6
				C28.5,11.6,28.5,11.6,28.5,11.6"/>
		</defs>
		<clipPath id="SVGID_80_">
			<use xlink:href="#SVGID_79_"  style="overflow:visible;"/>
		</clipPath>
		<g class="st39">
			<defs>
				<rect id="SVGID_81_" x="-316" y="-2757" width="1440" height="7509"/>
			</defs>
			<clipPath id="SVGID_82_">
				<use xlink:href="#SVGID_81_"  style="overflow:visible;"/>
			</clipPath>
			<rect x="23.4" y="6.5" class="st40" width="10.1" height="10.1"/>
		</g>
	</g>
</g>
<g>
	<defs>
		<rect id="SVGID_83_" x="2.1" y="76.5" width="55" height="55"/>
	</defs>
	<clipPath id="SVGID_84_">
		<use xlink:href="#SVGID_83_"  style="overflow:visible;"/>
	</clipPath>
	<g class="st41">
		<defs>
			<rect id="SVGID_85_" x="-316.9" y="-2812.5" width="1440" height="7509"/>
		</defs>
		<clipPath id="SVGID_86_">
			<use xlink:href="#SVGID_85_"  style="overflow:visible;"/>
		</clipPath>
	</g>
</g>
<g>
	<g>
		<defs>
			<rect id="SVGID_93_" x="2.2" y="150.6" width="55" height="55"/>
		</defs>
		<clipPath id="SVGID_88_">
			<use xlink:href="#SVGID_93_"  style="overflow:visible;"/>
		</clipPath>
		<g class="st43">
			<defs>
				<rect id="SVGID_95_" x="-316.8" y="-2868.4" width="1440" height="7509"/>
			</defs>
			<clipPath id="SVGID_90_">
				<use xlink:href="#SVGID_95_"  style="overflow:visible;"/>
			</clipPath>
		</g>
	</g>
	<g>
		<defs>
			<path id="SVGID_103_" d="M19,178c-0.4,0.8-0.3,7.2-0.4,7.4c0.3-0.3,0.5-0.3,0.6-0.3C19.2,183,18.7,179.7,19,178"/>
		</defs>
		<clipPath id="SVGID_92_">
			<use xlink:href="#SVGID_103_"  style="overflow:visible;"/>
		</clipPath>
		<g class="st45">
			<defs>
				<rect id="SVGID_105_" x="-316.8" y="-2868.4" width="1440" height="7509"/>
			</defs>
			<clipPath id="SVGID_94_">
				<use xlink:href="#SVGID_105_"  style="overflow:visible;"/>
			</clipPath>
		</g>
	</g>
</g>
<g>
	<g>
		<defs>
			<rect id="SVGID_107_" x="3" y="228.1" width="55" height="55"/>
		</defs>
		<clipPath id="SVGID_96_">
			<use xlink:href="#SVGID_107_"  style="overflow:visible;"/>
		</clipPath>
		<g style="clip-path:url(#SVGID_96_);">
			<defs>
				<rect id="SVGID_109_" x="-316" y="-2916.9" width="1440" height="7509"/>
			</defs>
			<clipPath id="SVGID_98_">
				<use xlink:href="#SVGID_109_"  style="overflow:visible;"/>
			</clipPath>
		</g>
	</g>
</g>
<g>
	<g>
		<defs>
			<path id="SVGID_117_" d="M-638.9,197.4c-43.9,0-79.5,35.6-79.5,79.5v4c0,43.9,35.6,79.5,79.5,79.5h4c43.8,0,79.3-35.4,79.5-79.1
				v-4.7c-0.2-43.7-35.7-79.1-79.5-79.1H-638.9z"/>
		</defs>
		<clipPath id="SVGID_100_">
			<use xlink:href="#SVGID_117_"  style="overflow:visible;"/>
		</clipPath>
		<g class="st49">
			<defs>
				<rect id="SVGID_119_" x="-929.4" y="-4675.6" width="1440" height="7509"/>
			</defs>
			<clipPath id="SVGID_102_">
				<use xlink:href="#SVGID_119_"  style="overflow:visible;"/>
			</clipPath>
		</g>
	</g>
	<g>
		<defs>
			<path id="SVGID_125_" d="M-639.6,255.2v-9h8.9c1,0,1.8-0.8,1.8-1.8v-8.9c0-1-0.8-1.8-1.8-1.8h-8.9V232h-3.6v23.2
				c-25.9,1-46.4,22.2-46.4,48.2v7.1c0,1,0.8,1.8,1.8,1.8h92.8c1,0,1.8-0.8,1.8-1.8v-7.1C-593.2,277.4-613.7,256.2-639.6,255.2z
				 M-639.6,242.7h7.1v-5.4h-7.1V242.7z M-603.9,308.7h-28.6v-8.9c0-4.9-4-8.9-8.9-8.9c-4.9,0-8.9,4-8.9,8.9v8.9h-28.6v-5.4
				c0-20.7,16.8-37.5,37.5-37.5c20.7,0,37.5,16.8,37.5,37.5V308.7z M-636.1,308.7h-10.7v-8.9c0-3,2.4-5.4,5.4-5.4
				c3,0,5.4,2.4,5.4,5.4V308.7z M-596.8,308.7h-3.6v-5.4c0-22.6-18.4-41.1-41.1-41.1c-22.6,0-41.1,18.4-41.1,41.1v5.4h-3.6v-5.4
				c0-24.6,20-44.6,44.6-44.6c24.6,0,44.6,20,44.6,44.6V308.7z"/>
		</defs>
		<clipPath id="SVGID_104_">
			<use xlink:href="#SVGID_125_"  style="overflow:visible;"/>
		</clipPath>
		<g class="st51">
			<defs>
				<rect id="SVGID_127_" x="-929.4" y="-4675.6" width="1440" height="7509"/>
			</defs>
			<clipPath id="SVGID_106_">
				<use xlink:href="#SVGID_127_"  style="overflow:visible;"/>
			</clipPath>
		</g>
	</g>
	<g>
		<defs>
			<path id="SVGID_129_" d="M-616.4,264.8h16.1h10.7h3.6v44h-10.3v3.6h12c1,0,1.8-0.8,1.8-1.8V263c0-1-0.8-1.8-1.8-1.8h-3.6v-10.7
				h1.8c1,0,1.8-0.8,1.8-1.8c0-0.5-0.2-0.9-0.5-1.3l-16.1-16.1c-0.7-0.7-1.8-0.7-2.5,0l-16.1,16.1c-0.7,0.7-0.7,1.8,0,2.5
				c0.3,0.3,0.8,0.5,1.3,0.5h3.6v10.7h-3.6c-1,0-1.8,0.8-1.8,1.8L-616.4,264.8z M-593.2,261.2h-3.6v-1.8c0-1,0.8-1.8,1.8-1.8
				c1,0,1.8,0.8,1.8,1.8V261.2z M-602.1,235.2l11.8,11.8h-23.5L-602.1,235.2z M-611.1,261.2v-10.7h19.6v4.9c-2.2-2-5.6-1.8-7.6,0.4
				c-0.9,1-1.4,2.3-1.4,3.6v1.8H-611.1z"/>
		</defs>
		<clipPath id="SVGID_108_">
			<use xlink:href="#SVGID_129_"  style="overflow:visible;"/>
		</clipPath>
		<g class="st53">
			<defs>
				<rect id="SVGID_131_" x="-929.4" y="-4675.6" width="1440" height="7509"/>
			</defs>
			<clipPath id="SVGID_110_">
				<use xlink:href="#SVGID_131_"  style="overflow:visible;"/>
			</clipPath>
		</g>
	</g>
	<g>
		<defs>
			<path id="SVGID_133_" d="M-657.5,286h-7.1c-1,0-1.8,0.8-1.8,1.8v7.1c0,1,0.8,1.8,1.8,1.8h7.1c1,0,1.8-0.8,1.8-1.8v-7.1
				C-655.7,286.8-656.5,286-657.5,286z M-662.8,293.1h3.6v-3.6h-3.6V293.1z"/>
		</defs>
		<clipPath id="SVGID_112_">
			<use xlink:href="#SVGID_133_"  style="overflow:visible;"/>
		</clipPath>
		<g class="st55">
			<defs>
				<rect id="SVGID_135_" x="-929.4" y="-4675.6" width="1440" height="7509"/>
			</defs>
			<clipPath id="SVGID_114_">
				<use xlink:href="#SVGID_135_"  style="overflow:visible;"/>
			</clipPath>
		</g>
	</g>
	<g>
		<defs>
			<path id="SVGID_137_" d="M-618.2,286h-7.1c-1,0-1.8,0.8-1.8,1.8v7.1c0,1,0.8,1.8,1.8,1.8h7.1c1,0,1.8-0.8,1.8-1.8v-7.1
				C-616.4,286.8-617.2,286-618.2,286z M-623.6,293.1h3.6v-3.6h-3.6V293.1z"/>
		</defs>
		<clipPath id="SVGID_116_">
			<use xlink:href="#SVGID_137_"  style="overflow:visible;"/>
		</clipPath>
		<g class="st57">
			<defs>
				<rect id="SVGID_139_" x="-929.4" y="-4675.6" width="1440" height="7509"/>
			</defs>
			<clipPath id="SVGID_118_">
				<use xlink:href="#SVGID_139_"  style="overflow:visible;"/>
			</clipPath>
		</g>
	</g>
</g>
<g>
	<g>
		<defs>
			<path id="SVGID_141_" d="M-278.8,197.4c-43.9,0-79.5,35.6-79.5,79.5v4c0,43.9,35.6,79.5,79.5,79.5h4c43.9,0,79.5-35.6,79.5-79.5
				v-4c0-43.9-35.6-79.5-79.5-79.5H-278.8z"/>
		</defs>
		<clipPath id="SVGID_120_">
			<use xlink:href="#SVGID_141_"  style="overflow:visible;"/>
		</clipPath>
		<g style="clip-path:url(#SVGID_120_);">
			<defs>
				<rect id="SVGID_143_" x="-569.3" y="-5146.6" width="1440" height="7509"/>
			</defs>
			<clipPath id="SVGID_122_">
				<use xlink:href="#SVGID_143_"  style="overflow:visible;"/>
			</clipPath>
		</g>
	</g>
	<g>
		<defs>
			<path id="SVGID_149_" d="M-278.3,233l0,8c10.8,0,22.1,2.7,33.6,8l0,3.9v40.4c0,4.6-5.9,11.5-15.8,18.4c-6.4,4.4-13,7.9-16.6,9.6
				c-3.6-1.7-10.1-5.2-16.6-9.6c-9.9-6.9-15.8-13.7-15.8-18.4v-44.5c10.1-5.2,20.6-7.8,31.2-7.8V233 M-278.3,233
				c-13.2,0-26.1,3.6-38.4,10.7c-0.5,0.3-0.8,0.8-0.8,1.3v48.4c0,18.5,38.2,35.8,39.8,36.6c0.2,0.1,0.4,0.1,0.6,0.1
				c0.2,0,0.4,0,0.6-0.1c1.6-0.7,39.8-18.1,39.8-36.6V245h0c0-0.6-0.3-1.1-0.8-1.4C-251.4,236.6-265.1,233-278.3,233"/>
		</defs>
		<clipPath id="SVGID_124_">
			<use xlink:href="#SVGID_149_"  style="overflow:visible;"/>
		</clipPath>
		<g style="clip-path:url(#SVGID_124_);">
			<defs>
				<rect id="SVGID_151_" x="-569.3" y="-5146.6" width="1440" height="7509"/>
			</defs>
			<clipPath id="SVGID_126_">
				<use xlink:href="#SVGID_151_"  style="overflow:visible;"/>
			</clipPath>
		</g>
	</g>
	<g>
		<defs>
			<path id="SVGID_153_" d="M-302.3,253.9c-0.4,0.2-0.7,0.6-0.7,1.1v35.9c0,7.4,15.1,17.8,25.2,23c0.2,0.1,0.3,0.1,0.5,0.1
				s0.4,0,0.5-0.1c10.1-5.2,25.2-15.6,25.2-23v-35.7c0-0.5-0.3-0.9-0.7-1.1c-8.9-4.2-17.7-6.4-26-6.4
				C-286.3,247.7-294.4,249.8-302.3,253.9z M-253.8,290.9c0,5.2-12,14.6-23.4,20.6c-11.3-5.9-23.4-15.3-23.4-20.6v-35.1
				c7.3-3.7,14.8-5.6,22.4-5.6c7.8,0,16,2,24.3,5.8V290.9z"/>
		</defs>
		<clipPath id="SVGID_128_">
			<use xlink:href="#SVGID_153_"  style="overflow:visible;"/>
		</clipPath>
		<g class="st63">
			<defs>
				<rect id="SVGID_155_" x="-569.3" y="-5146.6" width="1440" height="7509"/>
			</defs>
			<clipPath id="SVGID_130_">
				<use xlink:href="#SVGID_155_"  style="overflow:visible;"/>
			</clipPath>
		</g>
	</g>
	<g>
		<defs>
			<path id="SVGID_157_" d="M-284.6,284c0-0.2,0.1-0.4,0.3-0.4l5.2-0.9c0.2,0,0.4,0.1,0.4,0.3c0.1,2.1,0.4,2.5,1.1,2.5
				c0.7,0,1-0.3,1-1.9c0-1.4-0.2-1.8-1.9-2.5l-1.4-0.6c-3-1.2-4.4-3-4.4-6.8c0-4.1,1.6-6.5,4.9-7.1V264c0-0.2,0.1-0.3,0.3-0.3h3.3
				c0.2,0,0.3,0.1,0.3,0.3v2.6c3.1,0.6,4.6,2.7,4.8,6c0,0.2-0.1,0.3-0.3,0.4l-5.2,0.8c-0.2,0-0.4-0.1-0.4-0.3c-0.1-1.6-0.4-2-1-2
				c-0.6,0-0.8,0.3-0.8,1.5c0,1.1,0.3,1.6,2,2.3l1.4,0.6c3.3,1.3,4.3,3.1,4.3,7c0,4.4-1.6,6.8-4.9,7.5v2.7c0,0.2-0.1,0.3-0.3,0.3
				h-3.3c-0.2,0-0.3-0.1-0.3-0.3v-2.6C-283.3,289.8-284.5,287.4-284.6,284"/>
		</defs>
		<clipPath id="SVGID_132_">
			<use xlink:href="#SVGID_157_"  style="overflow:visible;"/>
		</clipPath>
		<g class="st65">
			<defs>
				<rect id="SVGID_159_" x="-569.3" y="-5146.6" width="1440" height="7509"/>
			</defs>
			<clipPath id="SVGID_134_">
				<use xlink:href="#SVGID_159_"  style="overflow:visible;"/>
			</clipPath>
		</g>
	</g>
</g>
<g>
	<g>
		<g>
			<defs>
				<path id="SVGID_161_" d="M-458.2,197.4c-43.9,0-79.5,35.6-79.5,79.5v4c0,43.9,35.6,79.5,79.5,79.5h4c43.8,0,79.3-35.4,79.5-79.1
					v-4.7c-0.2-43.7-35.7-79.1-79.5-79.1H-458.2z"/>
			</defs>
			<clipPath id="SVGID_136_">
				<use xlink:href="#SVGID_161_"  style="overflow:visible;"/>
			</clipPath>
			<g class="st67">
				<defs>
					<rect id="SVGID_163_" x="-749.7" y="-5921.6" width="1440" height="7509"/>
				</defs>
				<clipPath id="SVGID_138_">
					<use xlink:href="#SVGID_163_"  style="overflow:visible;"/>
				</clipPath>
			</g>
		</g>
		<g>
			<defs>
				<path id="SVGID_169_" d="M-486.3,262.2c0,0.1,0,0.2,0,0.3c-0.7,12.2,4.3,21.9,13.7,26.5c0.2,0.1,0.3,0.1,0.5,0.1s0.3,0,0.5-0.1
					c9.4-4.6,14.3-14.2,13.6-26.5c0-0.2,0-0.3,0-0.3c0-0.3-0.1-0.6-0.3-0.8c-0.2-0.2-0.5-0.3-0.8-0.3c-4.8,0-5.1-3.1-5.1-3.5
					c0-0.6-0.5-1.1-1.1-1.1H-479c-0.6,0-1.1,0.5-1.1,1.1c0,0.4-0.2,3.5-5.1,3.5C-485.8,261.1-486.3,261.6-486.3,262.2 M-484.2,263.2
					c4.3-0.4,5.6-3,6-4.5h11.8c0.4,1.5,1.7,4.1,6.1,4.5c0.3,6.6-1,17.9-11.9,23.6C-483.1,281.1-484.4,269.9-484.2,263.2"/>
			</defs>
			<clipPath id="SVGID_140_">
				<use xlink:href="#SVGID_169_"  style="overflow:visible;"/>
			</clipPath>
			<g class="st69">
				<defs>
					<rect id="SVGID_171_" x="-749.7" y="-5921.6" width="1440" height="7509"/>
				</defs>
				<clipPath id="SVGID_142_">
					<use xlink:href="#SVGID_171_"  style="overflow:visible;"/>
				</clipPath>
			</g>
		</g>
		<g>
			<defs>
				<path id="SVGID_173_" d="M-465.4,256.5H-479c-0.6,0-1.1,0.5-1.1,1.1c0,0.4-0.2,3.5-5.1,3.5c-0.6,0-1.1,0.5-1.1,1.1
					c0,0.1,0,0.2,0,0.3c-0.7,12.2,4.3,21.9,13.7,26.5c0.2,0.1,0.3,0.1,0.5,0.1c0.2,0,0.3,0,0.5-0.1c9.4-4.6,14.3-14.2,13.6-26.5
					c0-0.2,0-0.3,0-0.3c0-0.3-0.1-0.6-0.3-0.8s-0.5-0.3-0.8-0.3c-4.8,0-5.1-3.1-5.1-3.5C-464.3,257-464.8,256.5-465.4,256.5
					 M-472.2,286.8c-10.9-5.7-12.3-16.9-12-23.6c4.3-0.4,5.6-3,6-4.5h11.8c0.4,1.5,1.7,4.1,6.1,4.5
					C-460,269.9-461.3,281.1-472.2,286.8"/>
			</defs>
			<clipPath id="SVGID_144_">
				<use xlink:href="#SVGID_173_"  style="overflow:visible;"/>
			</clipPath>
			<g style="clip-path:url(#SVGID_144_);">
				<defs>
					<rect id="SVGID_175_" x="-749.7" y="-5921.6" width="1440" height="7509"/>
				</defs>
				<clipPath id="SVGID_146_">
					<use xlink:href="#SVGID_175_"  style="overflow:visible;"/>
				</clipPath>
			</g>
		</g>
		<g>
			<defs>
				<path id="SVGID_177_" d="M-459.7,248.2h3.7c0.6,0,1.1-0.5,1.1-1.1c0-0.6-0.5-1.1-1.1-1.1h-3.7c-0.6,0-1.1,0.5-1.1,1.1
					C-460.8,247.7-460.3,248.2-459.7,248.2"/>
			</defs>
			<clipPath id="SVGID_148_">
				<use xlink:href="#SVGID_177_"  style="overflow:visible;"/>
			</clipPath>
			<g style="clip-path:url(#SVGID_148_);">
				<defs>
					<rect id="SVGID_179_" x="-749.7" y="-5921.6" width="1440" height="7509"/>
				</defs>
				<clipPath id="SVGID_150_">
					<use xlink:href="#SVGID_179_"  style="overflow:visible;"/>
				</clipPath>
			</g>
		</g>
		<g>
			<defs>
				<path id="SVGID_181_" d="M-469.3,248.2h3.7c0.6,0,1.1-0.5,1.1-1.1c0-0.6-0.5-1.1-1.1-1.1h-3.7c-0.6,0-1.1,0.5-1.1,1.1
					C-470.4,247.7-469.9,248.2-469.3,248.2"/>
			</defs>
			<clipPath id="SVGID_152_">
				<use xlink:href="#SVGID_181_"  style="overflow:visible;"/>
			</clipPath>
			<g class="st76">
				<defs>
					<rect id="SVGID_183_" x="-749.7" y="-5921.6" width="1440" height="7509"/>
				</defs>
				<clipPath id="SVGID_154_">
					<use xlink:href="#SVGID_183_"  style="overflow:visible;"/>
				</clipPath>
			</g>
		</g>
		<g>
			<defs>
				<path id="SVGID_185_" d="M-478.8,248.2h3.7c0.6,0,1.1-0.5,1.1-1.1c0-0.6-0.5-1.1-1.1-1.1h-3.7c-0.6,0-1.1,0.5-1.1,1.1
					C-479.9,247.7-479.4,248.2-478.8,248.2"/>
			</defs>
			<clipPath id="SVGID_156_">
				<use xlink:href="#SVGID_185_"  style="overflow:visible;"/>
			</clipPath>
			<g class="st78">
				<defs>
					<rect id="SVGID_187_" x="-749.7" y="-5921.6" width="1440" height="7509"/>
				</defs>
				<clipPath id="SVGID_158_">
					<use xlink:href="#SVGID_187_"  style="overflow:visible;"/>
				</clipPath>
			</g>
		</g>
		<g>
			<defs>
				<path id="SVGID_189_" d="M-488.4,248.2h3.7c0.6,0,1.1-0.5,1.1-1.1c0-0.6-0.5-1.1-1.1-1.1h-3.7c-0.6,0-1.1,0.5-1.1,1.1
					C-489.5,247.7-489,248.2-488.4,248.2"/>
			</defs>
			<clipPath id="SVGID_160_">
				<use xlink:href="#SVGID_189_"  style="overflow:visible;"/>
			</clipPath>
			<g class="st80">
				<defs>
					<rect id="SVGID_191_" x="-749.7" y="-5921.6" width="1440" height="7509"/>
				</defs>
				<clipPath id="SVGID_162_">
					<use xlink:href="#SVGID_191_"  style="overflow:visible;"/>
				</clipPath>
			</g>
		</g>
		<g>
			<defs>
				<path id="SVGID_193_" d="M-456,298.2h-3.7c-0.6,0-1.1,0.5-1.1,1.1c0,0.6,0.5,1.1,1.1,1.1h3.7c0.6,0,1.1-0.5,1.1-1.1
					C-454.9,298.7-455.4,298.2-456,298.2"/>
			</defs>
			<clipPath id="SVGID_164_">
				<use xlink:href="#SVGID_193_"  style="overflow:visible;"/>
			</clipPath>
			<g style="clip-path:url(#SVGID_164_);">
				<defs>
					<rect id="SVGID_195_" x="-749.7" y="-5921.6" width="1440" height="7509"/>
				</defs>
				<clipPath id="SVGID_166_">
					<use xlink:href="#SVGID_195_"  style="overflow:visible;"/>
				</clipPath>
			</g>
		</g>
		<g>
			<defs>
				<path id="SVGID_197_" d="M-465.6,298.2h-3.7c-0.6,0-1.1,0.5-1.1,1.1c0,0.6,0.5,1.1,1.1,1.1h3.7c0.6,0,1.1-0.5,1.1-1.1
					C-464.5,298.7-465,298.2-465.6,298.2"/>
			</defs>
			<clipPath id="SVGID_168_">
				<use xlink:href="#SVGID_197_"  style="overflow:visible;"/>
			</clipPath>
			<g style="clip-path:url(#SVGID_168_);">
				<defs>
					<rect id="SVGID_199_" x="-749.7" y="-5921.6" width="1440" height="7509"/>
				</defs>
				<clipPath id="SVGID_170_">
					<use xlink:href="#SVGID_199_"  style="overflow:visible;"/>
				</clipPath>
			</g>
		</g>
		<g>
			<defs>
				<path id="SVGID_201_" d="M-475.1,298.2h-3.7c-0.6,0-1.1,0.5-1.1,1.1c0,0.6,0.5,1.1,1.1,1.1h3.7c0.6,0,1.1-0.5,1.1-1.1
					C-474,298.7-474.5,298.2-475.1,298.2"/>
			</defs>
			<clipPath id="SVGID_172_">
				<use xlink:href="#SVGID_201_"  style="overflow:visible;"/>
			</clipPath>
			<g style="clip-path:url(#SVGID_172_);">
				<defs>
					<rect id="SVGID_203_" x="-749.7" y="-5921.6" width="1440" height="7509"/>
				</defs>
				<clipPath id="SVGID_174_">
					<use xlink:href="#SVGID_203_"  style="overflow:visible;"/>
				</clipPath>
			</g>
		</g>
		<g>
			<defs>
				<path id="SVGID_205_" d="M-488.4,300.4h3.7c0.6,0,1.1-0.5,1.1-1.1c0-0.6-0.5-1.1-1.1-1.1h-3.7c-0.6,0-1.1,0.5-1.1,1.1
					C-489.5,299.9-489,300.4-488.4,300.4"/>
			</defs>
			<clipPath id="SVGID_176_">
				<use xlink:href="#SVGID_205_"  style="overflow:visible;"/>
			</clipPath>
			<g class="st88">
				<defs>
					<rect id="SVGID_207_" x="-749.7" y="-5921.6" width="1440" height="7509"/>
				</defs>
				<clipPath id="SVGID_178_">
					<use xlink:href="#SVGID_207_"  style="overflow:visible;"/>
				</clipPath>
			</g>
		</g>
		<g>
			<defs>
				<path id="SVGID_209_" d="M-498.5,313h31.4v9.9c0,0.6,0.5,1.1,1.1,1.1h52c0.6,0,1.1-0.5,1.1-1.1v-74.3c0-0.6-0.5-1.1-1.1-1.1
					h-31.4v-9.9c0-0.6-0.5-1.1-1.1-1.1h-52c-0.6,0-1.1,0.5-1.1,1.1V312C-499.5,312.6-499.1,313-498.5,313z M-450.6,313l-14.3,8v-8
					H-450.6z M-415,249.8v72.1h-46.9l16-9c0,0,0.1-0.1,0.1-0.1c0.1,0,0.1-0.1,0.2-0.1c0-0.1,0.1-0.1,0.1-0.2c0-0.1,0.1-0.1,0.1-0.2
					c0-0.1,0-0.1,0-0.2c0,0,0-0.1,0-0.1v-62.2H-415z M-447.5,238.8v7.2h-3.1c-0.6,0-1.1,0.5-1.1,1.1c0,0.6,0.5,1.1,1.1,1.1h3.1v50.1
					h-3.1c-0.6,0-1.1,0.5-1.1,1.1c0,0.6,0.5,1.1,1.1,1.1h3.1v9.4h-49.9v-9.4h3.1c0.6,0,1.1-0.5,1.1-1.1c0-0.6-0.5-1.1-1.1-1.1h-3.1
					v-50.1h3.1c0.6,0,1.1-0.5,1.1-1.1c0-0.6-0.5-1.1-1.1-1.1h-3.1v-7.2H-447.5z"/>
			</defs>
			<clipPath id="SVGID_180_">
				<use xlink:href="#SVGID_209_"  style="overflow:visible;"/>
			</clipPath>
			<g class="st90">
				<defs>
					<rect id="SVGID_211_" x="-749.7" y="-5921.6" width="1440" height="7509"/>
				</defs>
				<clipPath id="SVGID_182_">
					<use xlink:href="#SVGID_211_"  style="overflow:visible;"/>
				</clipPath>
			</g>
		</g>
		<g>
			<defs>
				<path id="SVGID_213_" d="M-435.4,262.5h11.8c0.6,0,1.1-0.5,1.1-1.1s-0.5-1.1-1.1-1.1h-11.8c-0.6,0-1.1,0.5-1.1,1.1
					S-436,262.5-435.4,262.5"/>
			</defs>
			<clipPath id="SVGID_184_">
				<use xlink:href="#SVGID_213_"  style="overflow:visible;"/>
			</clipPath>
			<g class="st92">
				<defs>
					<rect id="SVGID_215_" x="-749.7" y="-5921.6" width="1440" height="7509"/>
				</defs>
				<clipPath id="SVGID_186_">
					<use xlink:href="#SVGID_215_"  style="overflow:visible;"/>
				</clipPath>
			</g>
		</g>
		<g>
			<defs>
				<path id="SVGID_217_" d="M-435.4,272.5h11.8c0.6,0,1.1-0.5,1.1-1.1s-0.5-1.1-1.1-1.1h-11.8c-0.6,0-1.1,0.5-1.1,1.1
					S-436,272.5-435.4,272.5"/>
			</defs>
			<clipPath id="SVGID_188_">
				<use xlink:href="#SVGID_217_"  style="overflow:visible;"/>
			</clipPath>
			<g class="st94">
				<defs>
					<rect id="SVGID_219_" x="-749.7" y="-5921.6" width="1440" height="7509"/>
				</defs>
				<clipPath id="SVGID_190_">
					<use xlink:href="#SVGID_219_"  style="overflow:visible;"/>
				</clipPath>
			</g>
		</g>
		<g>
			<defs>
				<path id="SVGID_221_" d="M-435.4,282.4h11.8c0.6,0,1.1-0.5,1.1-1.1c0-0.6-0.5-1.1-1.1-1.1h-11.8c-0.6,0-1.1,0.5-1.1,1.1
					C-436.5,281.9-436,282.4-435.4,282.4"/>
			</defs>
			<clipPath id="SVGID_192_">
				<use xlink:href="#SVGID_221_"  style="overflow:visible;"/>
			</clipPath>
			<g class="st96">
				<defs>
					<rect id="SVGID_223_" x="-749.7" y="-5921.6" width="1440" height="7509"/>
				</defs>
				<clipPath id="SVGID_194_">
					<use xlink:href="#SVGID_223_"  style="overflow:visible;"/>
				</clipPath>
			</g>
		</g>
		<g>
			<defs>
				<path id="SVGID_225_" d="M-435.4,292.3h11.8c0.6,0,1.1-0.5,1.1-1.1c0-0.6-0.5-1.1-1.1-1.1h-11.8c-0.6,0-1.1,0.5-1.1,1.1
					C-436.5,291.8-436,292.3-435.4,292.3"/>
			</defs>
			<clipPath id="SVGID_196_">
				<use xlink:href="#SVGID_225_"  style="overflow:visible;"/>
			</clipPath>
			<g class="st98">
				<defs>
					<rect id="SVGID_227_" x="-749.7" y="-5921.6" width="1440" height="7509"/>
				</defs>
				<clipPath id="SVGID_198_">
					<use xlink:href="#SVGID_227_"  style="overflow:visible;"/>
				</clipPath>
			</g>
		</g>
		<g>
			<defs>
				<path id="SVGID_229_" d="M-435.4,302.2h11.8c0.6,0,1.1-0.5,1.1-1.1c0-0.6-0.5-1.1-1.1-1.1h-11.8c-0.6,0-1.1,0.5-1.1,1.1
					C-436.5,301.8-436,302.2-435.4,302.2"/>
			</defs>
			<clipPath id="SVGID_200_">
				<use xlink:href="#SVGID_229_"  style="overflow:visible;"/>
			</clipPath>
			<g class="st100">
				<defs>
					<rect id="SVGID_231_" x="-749.7" y="-5921.6" width="1440" height="7509"/>
				</defs>
				<clipPath id="SVGID_202_">
					<use xlink:href="#SVGID_231_"  style="overflow:visible;"/>
				</clipPath>
			</g>
		</g>
		<g>
			<defs>
				<path id="SVGID_233_" d="M-435.4,312.2h11.8c0.6,0,1.1-0.5,1.1-1.1c0-0.6-0.5-1.1-1.1-1.1h-11.8c-0.6,0-1.1,0.5-1.1,1.1
					C-436.5,311.7-436,312.2-435.4,312.2"/>
			</defs>
			<clipPath id="SVGID_204_">
				<use xlink:href="#SVGID_233_"  style="overflow:visible;"/>
			</clipPath>
			<g class="st102">
				<defs>
					<rect id="SVGID_235_" x="-749.7" y="-5921.6" width="1440" height="7509"/>
				</defs>
				<clipPath id="SVGID_206_">
					<use xlink:href="#SVGID_235_"  style="overflow:visible;"/>
				</clipPath>
			</g>
		</g>
	</g>
</g>
<g>
	<g>
		<defs>
			<path id="SVGID_237_" d="M-98.6,196.7c-43.9,0-79.5,35.6-79.5,79.5v4c0,43.9,35.6,79.5,79.5,79.5h4c43.8,0,79.3-35.4,79.5-79.1
				v-4.7c-0.2-43.7-35.7-79.1-79.5-79.1H-98.6z"/>
		</defs>
		<clipPath id="SVGID_208_">
			<use xlink:href="#SVGID_237_"  style="overflow:visible;"/>
		</clipPath>
		<g class="st104">
			<defs>
				<rect id="SVGID_239_" x="-390.1" y="-6663.3" width="1440" height="7509"/>
			</defs>
			<clipPath id="SVGID_210_">
				<use xlink:href="#SVGID_239_"  style="overflow:visible;"/>
			</clipPath>
		</g>
	</g>
	<g>
		<defs>
			<path id="SVGID_245_" d="M-55.4,318c3.8-5.6,1-9.8,1-9.8L-83,278.6l12.5-12.5l1.8,1.8c4.9,4.9,12.8,4.8,17.6,0
				c4.8-4.9,4.8-12.7,0-17.6l-3.8-3.8c1.8-3.7,0.2-8.2-3.5-9.9c-2.9-1.4-6.3-0.8-8.5,1.5l-12.3,12.3l0,0l-3.5-3.5
				c-1-1-2.5-1-3.5-0.1c-1,1-1,2.5-0.1,3.5c0,0,0,0,0.1,0.1l1.8,1.8l-12.5,12.5l-31.6-31.4l-13.8,13.8l31.4,31.7l-21,21
				c-0.2,0.2-0.4,0.5-0.6,0.8l-7,17.6c-0.5,1.3,0.1,2.7,1.4,3.2c0.6,0.2,1.3,0.2,1.9,0l17.6-7c0.3-0.1,0.6-0.3,0.8-0.6l21-21
				l12.5,12.5l15.9,15.2c6.3,5.8,12.3-1.1,12.3-1.1L-55.4,318z M-128.3,240.3l27.7,27.7l-7.1,7.1l-27.7-27.7L-128.3,240.3z
				 M-121.3,309.8l-11.7,4.7l4.7-11.7l47.2-47.2l7,7L-121.3,309.8z M-54.7,253.8c2.9,2.9,2.9,7.7,0,10.6c-2.9,2.9-7.7,2.9-10.6,0
				l-3.5-3.5l5.3-5.3l5.3-5.3L-54.7,253.8z M-59.9,241.5c1,1,1,2.5,0,3.5l-12.3,12.3l-3.5-3.5l12.3-12.3
				C-62.5,240.5-60.9,240.5-59.9,241.5L-59.9,241.5z"/>
		</defs>
		<clipPath id="SVGID_212_">
			<use xlink:href="#SVGID_245_"  style="overflow:visible;"/>
		</clipPath>
		<g class="st106">
			<defs>
				<rect id="SVGID_247_" x="-390.1" y="-6663.3" width="1440" height="7509"/>
			</defs>
			<clipPath id="SVGID_214_">
				<use xlink:href="#SVGID_247_"  style="overflow:visible;"/>
			</clipPath>
		</g>
	</g>
	<g>
		<defs>
			<path id="SVGID_249_" d="M-59.6,315.5c1.9-2.8,0.5-5,0.5-5l-27.5-28.3l-7.1,7.1l19.4,19.6l8,7.7c3.2,2.9,6.2-0.6,6.2-0.6"/>
		</defs>
		<clipPath id="SVGID_216_">
			<use xlink:href="#SVGID_249_"  style="overflow:visible;"/>
		</clipPath>
		<g class="st108">
			<defs>
				<rect id="SVGID_251_" x="-390.1" y="-6663.3" width="1440" height="7509"/>
			</defs>
			<clipPath id="SVGID_218_">
				<use xlink:href="#SVGID_251_"  style="overflow:visible;"/>
			</clipPath>
		</g>
	</g>
</g>
<g>
	<g>
		<defs>
			<circle id="SVGID_253_" cx="30.5" cy="329.9" r="27.5"/>
		</defs>
		<clipPath id="SVGID_220_">
			<use xlink:href="#SVGID_253_"  style="overflow:visible;"/>
		</clipPath>
		<g class="st110">
			<defs>
				<rect id="SVGID_255_" x="-316" y="-6791.6" width="1440" height="7509"/>
			</defs>
			<clipPath id="SVGID_222_">
				<use xlink:href="#SVGID_255_"  style="overflow:visible;"/>
			</clipPath>
		</g>
	</g>
	<g>
		<defs>
			<path id="SVGID_263_" d="M30.4,343.9c-0.8,0-1.7-0.2-2.4-0.6l-8.9-4.5c-0.5-0.3-0.8-0.9-0.5-1.4l0,0c0.3-0.5,0.9-0.8,1.5-0.5
				l8.9,4.5c0.9,0.5,2,0.5,2.9,0l8.9-4.4c0.5-0.3,1.2,0,1.5,0.5c0.3,0.5,0.1,1.2-0.5,1.5c0,0,0,0,0,0l-8.9,4.5
				C32,343.8,31.2,344,30.4,343.9"/>
		</defs>
		<clipPath id="SVGID_224_">
			<use xlink:href="#SVGID_263_"  style="overflow:visible;"/>
		</clipPath>
		<g class="st112">
			<defs>
				<rect id="SVGID_265_" x="-316" y="-6791.6" width="1440" height="7509"/>
			</defs>
			<clipPath id="SVGID_226_">
				<use xlink:href="#SVGID_265_"  style="overflow:visible;"/>
			</clipPath>
		</g>
	</g>
	<g>
		<defs>
			<path id="SVGID_267_" d="M30.4,337.4c-0.8,0-1.7-0.2-2.4-0.6l-8.9-4.5c-0.5-0.3-0.8-0.9-0.5-1.5c0.3-0.5,0.9-0.8,1.5-0.5
				c0,0,0,0,0,0l8.9,4.5c0.9,0.5,2,0.5,2.9,0l9-4.5c0.5-0.3,1.2-0.1,1.5,0.4c0.3,0.5,0.1,1.2-0.4,1.5c0,0-0.1,0-0.1,0l-8.9,4.5
				C32,337.2,31.2,337.4,30.4,337.4"/>
		</defs>
		<clipPath id="SVGID_228_">
			<use xlink:href="#SVGID_267_"  style="overflow:visible;"/>
		</clipPath>
		<g class="st114">
			<defs>
				<rect id="SVGID_269_" x="-316" y="-6791.6" width="1440" height="7509"/>
			</defs>
			<clipPath id="SVGID_230_">
				<use xlink:href="#SVGID_269_"  style="overflow:visible;"/>
			</clipPath>
		</g>
	</g>
	<g>
		<defs>
			<path id="SVGID_271_" d="M31.2,318.2l1,2.9c0.1,0.4,0.5,0.6,0.9,0.6h3c0.5,0,0.9,0.4,0.9,0.9c0,0.3-0.1,0.6-0.4,0.7l-2.5,1.8
				c-0.3,0.2-0.4,0.6-0.3,1l1,2.9c0.1,0.5-0.1,1-0.6,1.1c-0.3,0.1-0.6,0-0.8-0.1l-2.6-1.7c-0.3-0.2-0.8-0.2-1.1,0l-2.4,1.8
				c-0.4,0.3-1,0.2-1.3-0.2c-0.2-0.2-0.2-0.5-0.1-0.8l0.9-2.9c0.1-0.4,0-0.8-0.3-1l-2.5-1.8c-0.4-0.3-0.5-0.9-0.2-1.3
				c0.2-0.2,0.4-0.4,0.7-0.4h3c0.4,0,0.7-0.3,0.9-0.6l0.9-2.9c0.1-0.5,0.6-0.7,1.1-0.6C30.9,317.7,31.1,317.9,31.2,318.2"/>
		</defs>
		<clipPath id="SVGID_232_">
			<use xlink:href="#SVGID_271_"  style="overflow:visible;"/>
		</clipPath>
		<g class="st116">
			<defs>
				<rect id="SVGID_273_" x="-316" y="-6791.6" width="1440" height="7509"/>
			</defs>
			<clipPath id="SVGID_234_">
				<use xlink:href="#SVGID_273_"  style="overflow:visible;"/>
			</clipPath>
		</g>
	</g>
</g>
<g>
	<g>
		<defs>
			<circle id="SVGID_275_" cx="105.9" cy="29.5" r="27.5"/>
		</defs>
		<clipPath id="SVGID_236_">
			<use xlink:href="#SVGID_275_"  style="overflow:visible;"/>
		</clipPath>
		<g class="st118">
			<defs>
				<rect id="SVGID_277_" x="-240.6" y="-7302" width="1440" height="7509"/>
			</defs>
			<clipPath id="SVGID_238_">
				<use xlink:href="#SVGID_277_"  style="overflow:visible;"/>
			</clipPath>
		</g>
	</g>
	<g>
		<defs>
			<path id="SVGID_285_" d="M109.6,36l1-0.5c2.8-1.4,4.5-4.6,4.5-7.3V16.1c0-0.6-0.6-1.1-1.2-1.1h-16c-0.7,0-1.2,0.5-1.2,1.1v12.2
				c0,2.7,1.7,5.9,4.5,7.3l1,0.5c0.8,0.4,1.3,1.2,1.3,2v3.9h-2.1c-0.4,0-0.7,0.3-0.7,0.7v2.2h-2.1c-0.7,0-1.2,0.6-1.2,1.2v1.6
				c0,0.2,0.2,0.3,0.3,0.3H114c0.2,0,0.3-0.2,0.3-0.3V46c0-0.7-0.6-1.2-1.2-1.2H111v-2.2c0-0.4-0.3-0.7-0.7-0.7h-2.1V38
				C108.3,37.2,108.8,36.4,109.6,36"/>
		</defs>
		<clipPath id="SVGID_240_">
			<use xlink:href="#SVGID_285_"  style="overflow:visible;"/>
		</clipPath>
		<g style="clip-path:url(#SVGID_240_);">
			<defs>
				<rect id="SVGID_287_" x="-240.6" y="-7302" width="1440" height="7509"/>
			</defs>
			<clipPath id="SVGID_242_">
				<use xlink:href="#SVGID_287_"  style="overflow:visible;"/>
			</clipPath>
		</g>
	</g>
	<g>
		<defs>
			<path id="SVGID_289_" d="M95.4,17.9h-4.2c-0.3,0-0.6,0.2-0.5,0.6c0.1,1.9,0.7,8.2,4.6,11.1c0.2,0.1,0.4,0,0.4-0.2v-2.2
				c0-0.1,0-0.1-0.1-0.2c-0.8-0.8-1.4-1.9-1.9-3.3c-0.4-1.1-0.6-2.2-0.8-3.1c0-0.2,0.1-0.4,0.3-0.4h2.2c0.1,0,0.2-0.1,0.2-0.2v-1.7
				C95.6,18,95.5,17.9,95.4,17.9"/>
		</defs>
		<clipPath id="SVGID_244_">
			<use xlink:href="#SVGID_289_"  style="overflow:visible;"/>
		</clipPath>
		<g style="clip-path:url(#SVGID_244_);">
			<defs>
				<rect id="SVGID_291_" x="-240.6" y="-7302" width="1440" height="7509"/>
			</defs>
			<clipPath id="SVGID_246_">
				<use xlink:href="#SVGID_291_"  style="overflow:visible;"/>
			</clipPath>
		</g>
	</g>
	<g>
		<defs>
			<path id="SVGID_293_" d="M116.2,27c0,0-0.1,0.1-0.1,0.2v2.2c0,0.2,0.2,0.3,0.4,0.2c3.9-2.8,4.5-9.2,4.6-11.1
				c0-0.3-0.2-0.6-0.5-0.6h-4.2c-0.1,0-0.2,0.1-0.2,0.2v1.8c0,0.1,0.1,0.2,0.2,0.2h2.2c0.2,0,0.4,0.2,0.3,0.4
				c-0.2,0.9-0.4,2-0.8,3.1C117.6,25.1,117,26.2,116.2,27"/>
		</defs>
		<clipPath id="SVGID_248_">
			<use xlink:href="#SVGID_293_"  style="overflow:visible;"/>
		</clipPath>
		<g class="st125">
			<defs>
				<rect id="SVGID_295_" x="-240.6" y="-7302" width="1440" height="7509"/>
			</defs>
			<clipPath id="SVGID_250_">
				<use xlink:href="#SVGID_295_"  style="overflow:visible;"/>
			</clipPath>
		</g>
	</g>
	<g>
		<defs>
			<path id="SVGID_297_" d="M108.1,29.5l-2.2-1.2l-2.2,1.2c-0.2,0.1-0.4,0.1-0.6,0c-0.2-0.1-0.3-0.4-0.2-0.6l0.4-2.5l-1.8-1.7
				c-0.2-0.2-0.2-0.4-0.2-0.6c0.1-0.2,0.2-0.4,0.5-0.4l2.5-0.4l1.1-2.2c0.1-0.2,0.3-0.3,0.5-0.3c0.2,0,0.4,0.1,0.5,0.3l1.1,2.2
				l2.5,0.4c0.2,0,0.4,0.2,0.5,0.4c0.1,0.2,0,0.4-0.2,0.6l-1.8,1.7l0.4,2.5c0,0.2,0,0.4-0.2,0.6c-0.1,0.1-0.2,0.1-0.4,0.1
				L108.1,29.5z"/>
		</defs>
		<clipPath id="SVGID_252_">
			<use xlink:href="#SVGID_297_"  style="overflow:visible;"/>
		</clipPath>
		<g style="clip-path:url(#SVGID_252_);">
			<defs>
				<rect id="SVGID_299_" x="-240.6" y="-7302" width="1440" height="7509"/>
			</defs>
			<clipPath id="SVGID_254_">
				<use xlink:href="#SVGID_299_"  style="overflow:visible;"/>
			</clipPath>
		</g>
	</g>
</g>
<g>
	<g>
		<defs>
			<path id="SVGID_301_" d="M-639.7,2.8c-43.9,0-79.5,35.6-79.5,79.5v4c0,43.9,35.6,79.5,79.5,79.5h4c43.8,0,79.3-35.4,79.5-79.1
				v-4.7c-0.2-43.7-35.7-79.1-79.5-79.1H-639.7z"/>
		</defs>
		<clipPath id="SVGID_256_">
			<use xlink:href="#SVGID_301_"  style="overflow:visible;"/>
		</clipPath>
		<g style="clip-path:url(#SVGID_256_);">
			<defs>
				<rect id="SVGID_303_" x="-930.2" y="-2421.2" width="1440" height="7509"/>
			</defs>
			<clipPath id="SVGID_258_">
				<use xlink:href="#SVGID_303_"  style="overflow:visible;"/>
			</clipPath>
		</g>
	</g>
	<g>
		<defs>
			<path id="SVGID_311_" d="M-628.8,122.1h-41.3V50.6h10.7v0.8c0,2.8,2.2,5,5,5.1h28.2c2.8,0,5-2.3,5-5.1v-0.8h10.7v25.9
				c0,1.9,1.6,3.5,3.5,3.5c1.9,0,3.5-1.6,3.5-3.5V50.2c0-3.6-3-6.6-6.6-6.6h-11.6c-1.2-3.1-4.2-5.3-7.6-5.4h-0.8
				c-1.2-2.4-3.1-4.2-5.5-5.3c-2.8-1.2-5.8-1.3-8.6-0.2c-2.7,1-4.8,3-6.1,5.6h-0.9c-3.4,0-6.5,2.2-7.6,5.4h-11.6
				c-3.6,0-6.6,3-6.6,6.6v72.2c0,3.6,3,6.6,6.6,6.6h41.6c1.9,0,3.5-1.6,3.5-3.5C-625.4,123.6-626.9,122.1-628.8,122.1z M-654,46.6
				c0-1.5,1.2-2.8,2.7-2.9h0h4.9l0.3-1.6c0.6-3.2,3.8-5.2,6.9-4.6c2.3,0.5,4.1,2.3,4.6,4.6l0.3,1.6h4.9c1.5,0,2.8,1.3,2.7,2.9v0V51
				H-654V46.6z"/>
		</defs>
		<clipPath id="SVGID_260_">
			<use xlink:href="#SVGID_311_"  style="overflow:visible;"/>
		</clipPath>
		<g class="st132">
			<defs>
				<rect id="SVGID_313_" x="-930.2" y="-2421.2" width="1440" height="7509"/>
			</defs>
			<clipPath id="SVGID_262_">
				<use xlink:href="#SVGID_313_"  style="overflow:visible;"/>
			</clipPath>
		</g>
	</g>
	<g>
		<defs>
			<rect id="SVGID_315_" x="-663.1" y="66.2" width="42.9" height="4.9"/>
		</defs>
		<clipPath id="SVGID_264_">
			<use xlink:href="#SVGID_315_"  style="overflow:visible;"/>
		</clipPath>
		<g class="st134">
			<defs>
				<rect id="SVGID_317_" x="-930.2" y="-2421.2" width="1440" height="7509"/>
			</defs>
			<clipPath id="SVGID_266_">
				<use xlink:href="#SVGID_317_"  style="overflow:visible;"/>
			</clipPath>
		</g>
	</g>
	<g>
		<defs>
			<rect id="SVGID_319_" x="-663.1" y="85.8" width="27.2" height="4.9"/>
		</defs>
		<clipPath id="SVGID_268_">
			<use xlink:href="#SVGID_319_"  style="overflow:visible;"/>
		</clipPath>
		<g class="st136">
			<defs>
				<rect id="SVGID_321_" x="-930.2" y="-2421.2" width="1440" height="7509"/>
			</defs>
			<clipPath id="SVGID_270_">
				<use xlink:href="#SVGID_321_"  style="overflow:visible;"/>
			</clipPath>
		</g>
	</g>
	<g>
		<defs>
			<rect id="SVGID_323_" x="-663.1" y="105.4" width="21.9" height="4.9"/>
		</defs>
		<clipPath id="SVGID_272_">
			<use xlink:href="#SVGID_323_"  style="overflow:visible;"/>
		</clipPath>
		<g class="st138">
			<defs>
				<rect id="SVGID_325_" x="-930.2" y="-2421.2" width="1440" height="7509"/>
			</defs>
			<clipPath id="SVGID_274_">
				<use xlink:href="#SVGID_325_"  style="overflow:visible;"/>
			</clipPath>
		</g>
	</g>
	<g>
		<defs>
			<path id="SVGID_327_" d="M-606.9,83.8c-12.2,0-22.1,9.9-22.1,22.1s9.9,22.1,22.1,22.1s22.1-9.9,22.1-22.1S-594.8,83.8-606.9,83.8
				 M-606.9,123.1c-9.5,0-17.1-7.7-17.1-17.1s7.7-17.1,17.1-17.1c9.5,0,17.1,7.7,17.1,17.1S-597.5,123.1-606.9,123.1"/>
		</defs>
		<clipPath id="SVGID_276_">
			<use xlink:href="#SVGID_327_"  style="overflow:visible;"/>
		</clipPath>
		<g class="st140">
			<defs>
				<rect id="SVGID_329_" x="-930.2" y="-2421.2" width="1440" height="7509"/>
			</defs>
			<clipPath id="SVGID_278_">
				<use xlink:href="#SVGID_329_"  style="overflow:visible;"/>
			</clipPath>
		</g>
	</g>
	<g>
		<defs>
			<path id="SVGID_331_" d="M-608.5,110.4l-7.4-7.4l-2.7,2.6l8.8,8.9c0.3,0.3,0.8,0.6,1.4,0.6h0c0.5,0,1-0.3,1.4-0.7l11.7-14.2
				l-2.9-2.4L-608.5,110.4z"/>
		</defs>
		<clipPath id="SVGID_280_">
			<use xlink:href="#SVGID_331_"  style="overflow:visible;"/>
		</clipPath>
		<g class="st142">
			<defs>
				<rect id="SVGID_333_" x="-930.2" y="-2421.2" width="1440" height="7509"/>
			</defs>
			<clipPath id="SVGID_282_">
				<use xlink:href="#SVGID_333_"  style="overflow:visible;"/>
			</clipPath>
		</g>
	</g>
	<g>
		<defs>
			<path id="SVGID_335_" d="M-640.3,39.7c-1.9,0-3.4,1.5-3.4,3.4c0,1.9,1.5,3.4,3.4,3.4c1.9,0,3.4-1.5,3.4-3.4
				C-636.8,41.3-638.4,39.7-640.3,39.7"/>
		</defs>
		<clipPath id="SVGID_284_">
			<use xlink:href="#SVGID_335_"  style="overflow:visible;"/>
		</clipPath>
		<g class="st144">
			<defs>
				<rect id="SVGID_337_" x="-930.2" y="-2421.2" width="1440" height="7509"/>
			</defs>
			<clipPath id="SVGID_286_">
				<use xlink:href="#SVGID_337_"  style="overflow:visible;"/>
			</clipPath>
		</g>
	</g>
	<g>
		<defs>
			<path id="SVGID_339_" d="M-639.7,2.8c-43.9,0-79.5,35.6-79.5,79.5v4c0,43.9,35.6,79.5,79.5,79.5h4c43.8,0,79.3-35.4,79.5-79.1
				v-4.7c-0.2-43.7-35.7-79.1-79.5-79.1H-639.7z"/>
		</defs>
		<clipPath id="SVGID_288_">
			<use xlink:href="#SVGID_339_"  style="overflow:visible;"/>
		</clipPath>
		<g style="clip-path:url(#SVGID_288_);">
			<defs>
				<rect id="SVGID_341_" x="-930.2" y="-2421.2" width="1440" height="7509"/>
			</defs>
			<clipPath id="SVGID_290_">
				<use xlink:href="#SVGID_341_"  style="overflow:visible;"/>
			</clipPath>
		</g>
	</g>
	<g>
		<defs>
			<path id="SVGID_349_" d="M-628.8,122.1h-41.3V50.6h10.7v0.8c0,2.8,2.2,5,5,5.1h28.2c2.8,0,5-2.3,5-5.1v-0.8h10.7v25.9
				c0,1.9,1.6,3.5,3.5,3.5c1.9,0,3.5-1.6,3.5-3.5V50.2c0-3.6-3-6.6-6.6-6.6h-11.6c-1.2-3.1-4.2-5.3-7.6-5.4h-0.8
				c-1.2-2.4-3.1-4.2-5.5-5.3c-2.8-1.2-5.8-1.3-8.6-0.2c-2.7,1-4.8,3-6.1,5.6h-0.9c-3.4,0-6.5,2.2-7.6,5.4h-11.6
				c-3.6,0-6.6,3-6.6,6.6v72.2c0,3.6,3,6.6,6.6,6.6h41.6c1.9,0,3.5-1.6,3.5-3.5C-625.4,123.6-626.9,122.1-628.8,122.1z M-654,46.6
				c0-1.5,1.2-2.8,2.7-2.9h0h4.9l0.3-1.6c0.6-3.2,3.8-5.2,6.9-4.6c2.3,0.5,4.1,2.3,4.6,4.6l0.3,1.6h4.9c1.5,0,2.8,1.3,2.7,2.9v0V51
				H-654V46.6z"/>
		</defs>
		<clipPath id="SVGID_292_">
			<use xlink:href="#SVGID_349_"  style="overflow:visible;"/>
		</clipPath>
		<g style="clip-path:url(#SVGID_292_);">
			<defs>
				<rect id="SVGID_351_" x="-930.2" y="-2421.2" width="1440" height="7509"/>
			</defs>
			<clipPath id="SVGID_294_">
				<use xlink:href="#SVGID_351_"  style="overflow:visible;"/>
			</clipPath>
		</g>
	</g>
	<g>
		<defs>
			<rect id="SVGID_353_" x="-663.1" y="66.2" width="42.9" height="4.9"/>
		</defs>
		<clipPath id="SVGID_296_">
			<use xlink:href="#SVGID_353_"  style="overflow:visible;"/>
		</clipPath>
		<g style="clip-path:url(#SVGID_296_);">
			<defs>
				<rect id="SVGID_355_" x="-930.2" y="-2421.2" width="1440" height="7509"/>
			</defs>
			<clipPath id="SVGID_298_">
				<use xlink:href="#SVGID_355_"  style="overflow:visible;"/>
			</clipPath>
		</g>
	</g>
	<g>
		<defs>
			<rect id="SVGID_357_" x="-663.1" y="85.8" width="27.2" height="4.9"/>
		</defs>
		<clipPath id="SVGID_300_">
			<use xlink:href="#SVGID_357_"  style="overflow:visible;"/>
		</clipPath>
		<g class="st152">
			<defs>
				<rect id="SVGID_359_" x="-930.2" y="-2421.2" width="1440" height="7509"/>
			</defs>
			<clipPath id="SVGID_302_">
				<use xlink:href="#SVGID_359_"  style="overflow:visible;"/>
			</clipPath>
		</g>
	</g>
	<g>
		<defs>
			<rect id="SVGID_361_" x="-663.1" y="105.4" width="21.9" height="4.9"/>
		</defs>
		<clipPath id="SVGID_304_">
			<use xlink:href="#SVGID_361_"  style="overflow:visible;"/>
		</clipPath>
		<g style="clip-path:url(#SVGID_304_);">
			<defs>
				<rect id="SVGID_363_" x="-930.2" y="-2421.2" width="1440" height="7509"/>
			</defs>
			<clipPath id="SVGID_306_">
				<use xlink:href="#SVGID_363_"  style="overflow:visible;"/>
			</clipPath>
		</g>
	</g>
	<g>
		<defs>
			<path id="SVGID_365_" d="M-606.9,83.8c-12.2,0-22.1,9.9-22.1,22.1s9.9,22.1,22.1,22.1s22.1-9.9,22.1-22.1S-594.8,83.8-606.9,83.8
				 M-606.9,123.1c-9.5,0-17.1-7.7-17.1-17.1s7.7-17.1,17.1-17.1c9.5,0,17.1,7.7,17.1,17.1S-597.5,123.1-606.9,123.1"/>
		</defs>
		<clipPath id="SVGID_308_">
			<use xlink:href="#SVGID_365_"  style="overflow:visible;"/>
		</clipPath>
		<g class="st156">
			<defs>
				<rect id="SVGID_367_" x="-930.2" y="-2421.2" width="1440" height="7509"/>
			</defs>
			<clipPath id="SVGID_310_">
				<use xlink:href="#SVGID_367_"  style="overflow:visible;"/>
			</clipPath>
		</g>
	</g>
	<g>
		<defs>
			<path id="SVGID_369_" d="M-608.5,110.4l-7.4-7.4l-2.7,2.6l8.8,8.9c0.3,0.3,0.8,0.6,1.4,0.6h0c0.5,0,1-0.3,1.4-0.7l11.7-14.2
				l-2.9-2.4L-608.5,110.4z"/>
		</defs>
		<clipPath id="SVGID_312_">
			<use xlink:href="#SVGID_369_"  style="overflow:visible;"/>
		</clipPath>
		<g class="st158">
			<defs>
				<rect id="SVGID_371_" x="-930.2" y="-2421.2" width="1440" height="7509"/>
			</defs>
			<clipPath id="SVGID_314_">
				<use xlink:href="#SVGID_371_"  style="overflow:visible;"/>
			</clipPath>
		</g>
	</g>
	<g>
		<defs>
			<path id="SVGID_373_" d="M-640.3,39.7c-1.9,0-3.4,1.5-3.4,3.4c0,1.9,1.5,3.4,3.4,3.4c1.9,0,3.4-1.5,3.4-3.4
				C-636.8,41.3-638.4,39.7-640.3,39.7"/>
		</defs>
		<clipPath id="SVGID_316_">
			<use xlink:href="#SVGID_373_"  style="overflow:visible;"/>
		</clipPath>
		<g class="st160">
			<defs>
				<rect id="SVGID_375_" x="-930.2" y="-2421.2" width="1440" height="7509"/>
			</defs>
			<clipPath id="SVGID_318_">
				<use xlink:href="#SVGID_375_"  style="overflow:visible;"/>
			</clipPath>
		</g>
	</g>
	<g>
		<defs>
			<path id="SVGID_377_" d="M-639.7,2.8c-43.9,0-79.5,35.6-79.5,79.5v4c0,43.9,35.6,79.5,79.5,79.5h4c43.8,0,79.3-35.4,79.5-79.1
				v-4.7c-0.2-43.7-35.7-79.1-79.5-79.1H-639.7z"/>
		</defs>
		<clipPath id="SVGID_320_">
			<use xlink:href="#SVGID_377_"  style="overflow:visible;"/>
		</clipPath>
		<g class="st162">
			<defs>
				<rect id="SVGID_379_" x="-930.2" y="-2421.2" width="1440" height="7509"/>
			</defs>
			<clipPath id="SVGID_322_">
				<use xlink:href="#SVGID_379_"  style="overflow:visible;"/>
			</clipPath>
		</g>
	</g>
	<g>
		<defs>
			<path id="SVGID_387_" d="M-628.8,122.1h-41.3V50.6h10.7v0.8c0,2.8,2.2,5,5,5.1h28.2c2.8,0,5-2.3,5-5.1v-0.8h10.7v25.9
				c0,1.9,1.6,3.5,3.5,3.5c1.9,0,3.5-1.6,3.5-3.5V50.2c0-3.6-3-6.6-6.6-6.6h-11.6c-1.2-3.1-4.2-5.3-7.6-5.4h-0.8
				c-1.2-2.4-3.1-4.2-5.5-5.3c-2.8-1.2-5.8-1.3-8.6-0.2c-2.7,1-4.8,3-6.1,5.6h-0.9c-3.4,0-6.5,2.2-7.6,5.4h-11.6
				c-3.6,0-6.6,3-6.6,6.6v72.2c0,3.6,3,6.6,6.6,6.6h41.6c1.9,0,3.5-1.6,3.5-3.5C-625.4,123.6-626.9,122.1-628.8,122.1z M-654,46.6
				c0-1.5,1.2-2.8,2.7-2.9h0h4.9l0.3-1.6c0.6-3.2,3.8-5.2,6.9-4.6c2.3,0.5,4.1,2.3,4.6,4.6l0.3,1.6h4.9c1.5,0,2.8,1.3,2.7,2.9v0V51
				H-654V46.6z"/>
		</defs>
		<clipPath id="SVGID_324_">
			<use xlink:href="#SVGID_387_"  style="overflow:visible;"/>
		</clipPath>
		<g class="st164">
			<defs>
				<rect id="SVGID_389_" x="-930.2" y="-2421.2" width="1440" height="7509"/>
			</defs>
			<clipPath id="SVGID_326_">
				<use xlink:href="#SVGID_389_"  style="overflow:visible;"/>
			</clipPath>
		</g>
	</g>
	<g>
		<defs>
			<rect id="SVGID_391_" x="-663.1" y="66.2" width="42.9" height="4.9"/>
		</defs>
		<clipPath id="SVGID_328_">
			<use xlink:href="#SVGID_391_"  style="overflow:visible;"/>
		</clipPath>
		<g class="st166">
			<defs>
				<rect id="SVGID_393_" x="-930.2" y="-2421.2" width="1440" height="7509"/>
			</defs>
			<clipPath id="SVGID_330_">
				<use xlink:href="#SVGID_393_"  style="overflow:visible;"/>
			</clipPath>
		</g>
	</g>
	<g>
		<defs>
			<rect id="SVGID_395_" x="-663.1" y="85.8" width="27.2" height="4.9"/>
		</defs>
		<clipPath id="SVGID_332_">
			<use xlink:href="#SVGID_395_"  style="overflow:visible;"/>
		</clipPath>
		<g class="st168">
			<defs>
				<rect id="SVGID_397_" x="-930.2" y="-2421.2" width="1440" height="7509"/>
			</defs>
			<clipPath id="SVGID_334_">
				<use xlink:href="#SVGID_397_"  style="overflow:visible;"/>
			</clipPath>
		</g>
	</g>
	<g>
		<defs>
			<rect id="SVGID_399_" x="-663.1" y="105.4" width="21.9" height="4.9"/>
		</defs>
		<clipPath id="SVGID_336_">
			<use xlink:href="#SVGID_399_"  style="overflow:visible;"/>
		</clipPath>
		<g class="st170">
			<defs>
				<rect id="SVGID_401_" x="-930.2" y="-2421.2" width="1440" height="7509"/>
			</defs>
			<clipPath id="SVGID_338_">
				<use xlink:href="#SVGID_401_"  style="overflow:visible;"/>
			</clipPath>
		</g>
	</g>
	<g>
		<defs>
			<path id="SVGID_403_" d="M-606.9,83.8c-12.2,0-22.1,9.9-22.1,22.1s9.9,22.1,22.1,22.1s22.1-9.9,22.1-22.1S-594.8,83.8-606.9,83.8
				 M-606.9,123.1c-9.5,0-17.1-7.7-17.1-17.1s7.7-17.1,17.1-17.1c9.5,0,17.1,7.7,17.1,17.1S-597.5,123.1-606.9,123.1"/>
		</defs>
		<clipPath id="SVGID_340_">
			<use xlink:href="#SVGID_403_"  style="overflow:visible;"/>
		</clipPath>
		<g class="st172">
			<defs>
				<rect id="SVGID_405_" x="-930.2" y="-2421.2" width="1440" height="7509"/>
			</defs>
			<clipPath id="SVGID_342_">
				<use xlink:href="#SVGID_405_"  style="overflow:visible;"/>
			</clipPath>
		</g>
	</g>
	<g>
		<defs>
			<path id="SVGID_407_" d="M-608.5,110.4l-7.4-7.4l-2.7,2.6l8.8,8.9c0.3,0.3,0.8,0.6,1.4,0.6h0c0.5,0,1-0.3,1.4-0.7l11.7-14.2
				l-2.9-2.4L-608.5,110.4z"/>
		</defs>
		<clipPath id="SVGID_344_">
			<use xlink:href="#SVGID_407_"  style="overflow:visible;"/>
		</clipPath>
		<g class="st174">
			<defs>
				<rect id="SVGID_409_" x="-930.2" y="-2421.2" width="1440" height="7509"/>
			</defs>
			<clipPath id="SVGID_346_">
				<use xlink:href="#SVGID_409_"  style="overflow:visible;"/>
			</clipPath>
		</g>
	</g>
	<g>
		<defs>
			<path id="SVGID_411_" d="M-640.3,39.7c-1.9,0-3.4,1.5-3.4,3.4c0,1.9,1.5,3.4,3.4,3.4c1.9,0,3.4-1.5,3.4-3.4
				C-636.8,41.3-638.4,39.7-640.3,39.7"/>
		</defs>
		<clipPath id="SVGID_348_">
			<use xlink:href="#SVGID_411_"  style="overflow:visible;"/>
		</clipPath>
		<g class="st176">
			<defs>
				<rect id="SVGID_413_" x="-930.2" y="-2421.2" width="1440" height="7509"/>
			</defs>
			<clipPath id="SVGID_350_">
				<use xlink:href="#SVGID_413_"  style="overflow:visible;"/>
			</clipPath>
		</g>
	</g>
</g>
<g>
	<g>
		<defs>
			<path id="SVGID_415_" d="M-278.8,1.1h4c43.9,0,79.5,35.6,79.5,79.5v4c0,43.9-35.6,79.5-79.5,79.5h-4c-43.9,0-79.5-35.6-79.5-79.5
				v-4C-358.3,36.7-322.7,1.1-278.8,1.1z"/>
		</defs>
		<clipPath id="SVGID_352_">
			<use xlink:href="#SVGID_415_"  style="overflow:visible;"/>
		</clipPath>
		<g class="st178">
			<defs>
				<rect id="SVGID_417_" x="-569.3" y="-4428.9" width="1440" height="7509"/>
			</defs>
			<clipPath id="SVGID_354_">
				<use xlink:href="#SVGID_417_"  style="overflow:visible;"/>
			</clipPath>
		</g>
	</g>
	<g>
		<defs>
			<path id="SVGID_423_" d="M-253.1,72.5h-0.4v-3.8c0-1.5-0.7-2.7-1.7-3.5v-1.9c0-0.7-0.5-1.2-1.2-1.2h-3.6c-0.7,0-1.2,0.5-1.2,1.2
				v9.2H-280v-9.2c0-0.7-0.5-1.2-1.2-1.2h-3.6c-0.7,0-1.2,0.5-1.2,1.2v1.9c-1.1,0.8-1.7,2.1-1.7,3.5v3.8h-0.4
				c-1.5,0-2.6,1.2-2.6,2.6c0,1.5,1.2,2.6,2.6,2.6h0.4v3.8c0,1.5,0.7,2.7,1.7,3.5v1.9c0,0.7,0.5,1.2,1.2,1.2h3.6
				c0.7,0,1.2-0.5,1.2-1.2v-9.2h18.8v9.2c0,0.7,0.5,1.2,1.2,1.2h3.6c0.7,0,1.2-0.5,1.2-1.2V85c1.1-0.8,1.7-2.1,1.7-3.5v-3.8h0.4
				c1.5,0,2.6-1.2,2.6-2.6C-250.5,73.6-251.6,72.5-253.1,72.5z"/>
		</defs>
		<clipPath id="SVGID_356_">
			<use xlink:href="#SVGID_423_"  style="overflow:visible;"/>
		</clipPath>
		<g class="st180">
			<defs>
				<rect id="SVGID_425_" x="-569.3" y="-4428.9" width="1440" height="7509"/>
			</defs>
			<clipPath id="SVGID_358_">
				<use xlink:href="#SVGID_425_"  style="overflow:visible;"/>
			</clipPath>
		</g>
	</g>
	<g>
		<defs>
			<path id="SVGID_427_" d="M-250.4,95.8c-6.5,6.3-7.4,15-7.4,22.7v3.7h-25.3v-3.7c0-2.8-2.1-5.2-4.9-5.4l-15.4-1.5
				c-0.2,0-0.4-0.1-0.4-0.2c-0.1-0.1-0.1-0.3-0.1-0.5c0.4-4.3,1.2-11.7,1.9-18.6l0.4-3.4l-7-0.6l8.3-13.7l0.1-0.9
				c0.4-7.5,3.6-14.5,9.1-19.7c5.8-5.5,13.5-8.4,21.7-8c15.1,0.9,27.2,13.6,27.5,28.7C-241.9,82.6-244.9,90.3-250.4,95.8z
				 M-269.2,39.3L-269.2,39.3c-10-0.5-19.5,3-26.7,9.8c-6.5,6.1-10.4,14.4-11.1,23.3l-8.4,13.9c-1,1.5-1.2,3.5-0.4,5.2
				c0.9,1.8,2.6,3.1,4.7,3.2l2,0.1c-0.6,5.8-1.2,11.5-1.5,15.2c-0.2,2,0.4,3.9,1.6,5.5s3.1,2.5,5,2.7l14.2,1.5v9.3h38.8v-10.4
				c0-7.6,0.9-13.5,5.5-17.9c6.8-6.8,10.6-16.3,10.4-26.1C-235.6,55.8-250.5,40.4-269.2,39.3z"/>
		</defs>
		<clipPath id="SVGID_360_">
			<use xlink:href="#SVGID_427_"  style="overflow:visible;"/>
		</clipPath>
		<g class="st182">
			<defs>
				<rect id="SVGID_429_" x="-569.3" y="-4428.9" width="1440" height="7509"/>
			</defs>
			<clipPath id="SVGID_362_">
				<use xlink:href="#SVGID_429_"  style="overflow:visible;"/>
			</clipPath>
		</g>
	</g>
</g>
<g>
	<g>
		<defs>
			<path id="SVGID_431_" d="M-97.9,3.1c-43.9,0-79.5,35.6-79.5,79.5v4c0,43.9,35.6,79.5,79.5,79.5h4c43.8,0,79.3-35.4,79.5-79.1
				v-4.7C-14.6,38.5-50.2,3.1-93.9,3.1H-97.9z"/>
		</defs>
		<clipPath id="SVGID_364_">
			<use xlink:href="#SVGID_431_"  style="overflow:visible;"/>
		</clipPath>
		<g class="st184">
			<defs>
				<rect id="SVGID_433_" x="-389.4" y="-5617.9" width="1440" height="7509"/>
			</defs>
			<clipPath id="SVGID_366_">
				<use xlink:href="#SVGID_433_"  style="overflow:visible;"/>
			</clipPath>
			<g style="clip-path:url(#SVGID_366_);enable-background:new    ;">
				<g>
					<defs>
						<rect id="SVGID_435_" x="-228.4" y="-47.9" width="264" height="264"/>
					</defs>
					<clipPath id="SVGID_368_">
						<use xlink:href="#SVGID_435_"  style="overflow:visible;"/>
					</clipPath>
				</g>
			</g>
		</g>
	</g>
	<g>
		<defs>
			<path id="SVGID_439_" d="M-96.6,71.9c0.1,0,0.2,0.1,0.2,0.2c2.8,3.6,5.9,6.8,9.2,9.9c3.6,3.3,7.5,6.4,11.5,9.3
				c0.6,0.5,1.2,0.9,1.9,1.4c0.3,0.3,0.3,0.2,0.1,0.5c-1.5,2.6-3.4,4.8-5.8,6.7c-3.2,2.6-6.9,4.2-10.9,5c-1.8,0.4-3.6,0.6-5.4,0.6
				c-8.2,0-16.2-3.3-21.7-9.9c-0.6-0.8-1.2-1.6-1.8-2.4c-0.2-0.3-0.2-0.3,0.1-0.5c2.2-1.6,4.5-3.3,6.6-5c3.8-3,7.5-6.2,10.8-9.8
				c1.7-1.8,3.4-3.7,4.9-5.7C-96.8,72.1-96.7,72-96.6,71.9 M-100.6,91.2c-0.1-0.1-0.3-0.1-0.4-0.1c-1.3-0.1-2.4,0.5-3.4,1.4
				c-0.1,0.1-0.2,0.2-0.3,0.4c-0.1,0.1,0,0.2,0.1,0.2c0.2,0,0.3,0,0.5,0c0.1,0,0.1,0,0.1,0.1c0,0.1,0,0.1-0.1,0.1
				c-0.1,0.1-0.3,0.1-0.4,0.1c-0.3,0-0.7,0.2-0.9,0.4c-0.3,0.4-0.6,0.8-0.7,1.2c-0.1,0.3-0.2,0.7-0.1,1c0,0.3,0.1,0.7,0.3,0.9
				c0.2,0.4,0.3,0.7,0.2,1.1c0,0.1,0,0.2,0,0.3c0.1,0.2,0.1,0.5,0.2,0.7c0.1,0.2,0.1,0.3,0,0.5c-0.1,0.1,0,0.2,0.1,0.2
				c0.3,0,0.4,0.2,0.5,0.4c0.1,0.2,0.2,0.3,0.3,0.4c0.2,0.2,0.4,0.5,0.7,0.6c0,0,0,0,0,0.1c0.3,0.4,0.8,0.5,1.2,0.6
				c0.1,0,0.2,0,0.3,0c0.3,0.1,0.7,0,1,0c0.1,0,0.1,0,0.2-0.1c0.2-0.2,0.4-0.1,0.6-0.1c0.6,0.1,1.1,0.1,1.7,0.1
				c0.3-0.1,0.3,0,0.3,0.3c0,0.1-0.1,0.3-0.1,0.4c0,0.1-0.1,0.1,0,0.2c0,0,0,0,0.1,0c0.1,0,0.1,0,0.2,0c0.6-0.2,1.1-0.5,1.6-0.9
				c0.6-0.4,1.1-0.9,1.5-1.6c0.1-0.1,0.2-0.2,0.1-0.3c-0.1-0.1-0.2,0-0.3,0c-0.4,0.1-0.7,0.1-1.1,0.1c-0.7,0-1.4-0.1-2.1-0.3
				c-0.1,0-0.2-0.1-0.3-0.1c0,0.1,0,0.1,0,0.2c0.1,0.2,0.2,0.5,0.3,0.7c0,0.1,0,0.2-0.1,0.2c-0.4,0-0.7,0-1.1-0.2
				c-0.1,0-0.2-0.1-0.1-0.2c0.1-0.3-0.1-0.5,0-0.8c0-0.4-0.2-0.8-0.3-1.1c0,0,0-0.1-0.1-0.1c-0.2-0.3-0.2-0.4,0.1-0.6
				c0.2-0.1,0.2-0.1,0.4,0.1c0,0,0.1,0.1,0.1,0.1c1.2,1.3,2.8,1.9,4.6,1.6c1.4-0.2,2.4-0.9,3.2-2.1c0.9-1.3,1.1-2.7,0.7-4.2
				c0-0.1-0.1-0.2,0-0.3c0.1,0,0.3,0.1,0.4,0.2c0.1,0.2,0.3,0.3,0.6,0.3c0.1,0,0.2,0,0.2,0.1c0.2,0.2,0.4,0.4,0.5,0.7
				c0.2,0.4,0.6,0.5,0.9,0.7c0.1,0,0.1,0,0.2,0c0.2-0.1,0.4-0.3,0.6-0.4c0.1-0.1,0.1-0.2,0.1-0.3c0-0.3-0.2-0.6-0.3-0.9
				c-0.1-0.2-0.2-0.4-0.1-0.6c0-0.1,0.1-0.3,0.2-0.4c0.1-0.1,0.1-0.2,0.1-0.3c0-0.2,0.1-0.3,0.3-0.4c0.6-0.3,0.9-1,0.8-1.7
				c-0.1-0.6-0.6-1.1-1.3-1.2c-0.3,0-0.6,0-0.9-0.1c-0.3,0-0.5,0.1-0.8,0.2c-0.1,0-0.1,0.2-0.2,0.3c0,0.1,0,0.2,0.1,0.3
				c0.1,0.1,0.1,0.2,0,0.4c0,0.2-0.1,0.4,0,0.6c0,0.1,0,0.1-0.1,0.2c-0.1,0-0.1,0-0.2-0.1c0,0-0.1-0.1-0.1-0.1
				c-0.3-0.4-0.5-0.9-0.8-1.3c-0.2-0.2-0.4-0.5-0.7-0.6c-0.2-0.1-0.4,0.2-0.6,0.3c0,0-0.1,0.1-0.1,0.1c-0.1,0.1-0.1,0.2-0.1,0.3
				c0.1,0.2,0.2,0.3,0.1,0.5c0,0.1,0,0.1,0.1,0.2c0.2,0.1,0.2,0.4,0.3,0.6c-0.2,0-0.3-0.1-0.5-0.2c-0.2-0.1-0.7-0.2-0.9-0.1
				c-0.2,0.1-0.3,0-0.4-0.1c-0.1,0-0.2-0.1-0.2-0.2c0-0.1,0.1-0.1,0.2-0.2c0.2-0.1,0.3-0.2,0.2-0.4c0-0.2-0.1-0.4-0.3-0.5
				c-0.2-0.2-0.3-0.3-0.5-0.5c-0.1-0.1-0.2-0.1-0.2-0.3c-0.1-0.2,0-0.4,0.3-0.4c0.7-0.1,1.4-0.2,2-0.5c0.2-0.1,0.4-0.1,0.6,0
				c0.2,0.1,0.3,0.2,0.5,0.2c0.3,0,0.6,0,0.9,0.1c0.3,0.1,0.6,0.1,0.9-0.1c0.1,0,0.2-0.1,0.3-0.1c0.6,0,1.1-0.3,1.7-0.6
				c0.1,0,0.1-0.1,0.1-0.2c-0.1-0.1-0.2-0.1-0.4-0.1c-0.3-0.1-0.7,0-1-0.3c0,0-0.1,0-0.2-0.1c-0.5-0.2-0.9-0.3-1.3-0.6
				c-0.4-0.2-0.8-0.4-1.2-0.6c-0.5-0.3-1-0.6-1.6-0.8c-0.2-0.1-0.4-0.2-0.6-0.2c-0.6-0.1-1.1,0.3-1,1c0,0.2,0,0.3-0.2,0.4
				c-0.2,0.1-0.4,0.1-0.5-0.1c-0.1-0.1-0.2-0.3-0.2-0.4c-0.1-0.2-0.1-0.4-0.2-0.6c-0.1-0.6-0.5-0.8-1-0.8c-0.3,0-0.5,0.1-0.8,0.1
				c-0.2,0-0.6-0.1-0.7-0.3c-0.1-0.2-0.1-0.3,0.1-0.4c0.1-0.1,0.3-0.1,0.5,0c0.2,0,0.5,0.1,0.7,0.1c0.6,0.1,1.3,0.2,1.9,0
				c0.4-0.1,0.7-0.1,1.1,0c0.3,0.1,0.6,0,0.8-0.3c0.1-0.2,0.2-0.4,0.2-0.7c-0.2,0.1-0.3-0.1-0.4-0.2c-0.1,0.1-0.1,0.2-0.1,0.3
				c-0.1,0.1-0.2,0.1-0.3,0c-0.2-0.3-0.5-0.3-0.9-0.2c-0.9,0.2-1.8,0.2-2.7,0c-0.3-0.1-0.5-0.1-0.8,0c-0.4,0-0.6,0.2-0.9,0.5
				c-0.2,0.2-0.2,0.5-0.1,0.8c0.1,0.3,0.3,0.5,0.6,0.7c0.3,0.1,0.6,0.2,0.8,0.5c0.1,0,0.2-0.2,0.3-0.1c-0.2,0.4-0.2,0.8-0.2,1.2
				c0,0.1-0.1,0.2-0.2,0.1c-0.2-0.1-0.2-0.3-0.1-0.5c0.2-0.5-0.1-0.9-0.6-0.9c-0.3,0-0.5,0.1-0.7,0.2c-0.7,0.3-1.5,0.7-2.2,1.1
				c-0.6,0.4-1.2,0.7-1.9,0.9c-0.1,0-0.2,0-0.2,0.1c-0.1,0.2-0.3,0.2-0.5,0.2c-0.2,0.1-0.5,0.1-0.8,0.2c0,0,0,0.1,0,0.1
				c0.3,0.1,0.5,0.4,0.8,0.5c0.1,0,0.1,0,0.2,0c0.1,0,0.1,0,0.2,0c0.3,0.2,0.6,0.1,0.9,0.3c0,0,0.1,0,0.2,0c0.4,0,0.7-0.1,1.1-0.2
				c0.2,0,0.3-0.1,0.5,0c0.2,0,0.3,0,0.5,0c0.1,0,0.2-0.1,0.3-0.1c0.4,0.1,0.7,0.2,1.1,0.2c0.4,0,0.7,0.2,1.1,0.3
				c0.3,0.1,0.4,0.4,0.2,0.6c-0.1,0.1-0.2,0.1-0.2,0.2c-0.2,0.2-0.4,0.4-0.6,0.6c-0.1,0.2-0.1,0.4,0,0.5c0.3,0.3,0.3,0.3,0,0.5
				c0,0-0.1,0-0.1,0.1c-1.2,0.7-2.1,1.8-2.4,3.2c-0.1,0.3-0.1,0.6-0.1,0.9c0,0.2-0.1,0.3-0.2,0.3c-0.1,0-0.2,0.1-0.2,0.1
				c-0.3,0.5-0.6,1-0.6,1.6c0,0.2,0.1,0.4,0.1,0.5c0,0,0,0-0.1,0c-0.3,0-0.8-0.4-0.8-0.7c0-0.1,0-0.1,0.1-0.2
				c0.2-0.2,0.3-0.4,0.4-0.7c0.1-0.2,0.1-0.5,0.1-0.8c0-0.1,0-0.1-0.1-0.2c-0.1-0.1-0.2-0.3-0.3-0.5c0.3,0.1,0.5,0.4,0.8,0.5
				C-101.9,93.1-101.3,92.1-100.6,91.2 M-81.7,96.9c0.1,0,0.1,0,0.2-0.1c0.4-0.3,0.9-0.6,1.3-0.9c0.2-0.1,0.3-0.1,0.4,0
				c0.4,0.3,0.7,0.5,1.1,0.8c0.1,0.1,0.2,0.2,0.3,0.2c0.1-0.1,0-0.2-0.1-0.3c-0.1-0.4-0.3-0.9-0.4-1.3C-79,95-79,95-78.7,94.8
				c0.4-0.3,0.8-0.6,1.2-0.9c0.1,0,0.1-0.1,0.1-0.2c-0.1,0-0.2,0-0.3,0c-0.4,0-0.8,0-1.3,0c-0.4,0-0.4,0-0.5-0.4
				c-0.1-0.4-0.3-0.8-0.4-1.2c0-0.1,0-0.2-0.1-0.3c-0.1,0.1-0.1,0.2-0.1,0.2c-0.1,0.4-0.3,0.9-0.4,1.3c-0.1,0.3-0.1,0.3-0.5,0.3
				c-0.5,0-1,0-1.5,0c-0.1,0-0.2,0-0.2,0.1c0,0.1,0.1,0.1,0.2,0.2c0.4,0.3,0.8,0.6,1.2,0.9c0.2,0.2,0.2,0.2,0.2,0.5
				c-0.1,0.4-0.3,0.9-0.4,1.3C-81.7,96.7-81.7,96.8-81.7,96.9 M-110.2,96.9L-110.2,96.9c-0.1-0.6-0.3-1.1-0.4-1.6
				c-0.1-0.3-0.1-0.3,0.2-0.5c0.4-0.3,0.7-0.5,1.1-0.8c0.1-0.1,0.2-0.1,0.2-0.2c-0.1,0-0.2,0-0.3,0c-0.5,0-1,0-1.4,0
				c-0.2,0-0.3-0.1-0.4-0.3c-0.1-0.5-0.3-0.9-0.5-1.4c0-0.1,0-0.2-0.1-0.2c-0.1,0.1-0.1,0.2-0.1,0.3c-0.1,0.4-0.3,0.9-0.4,1.3
				c-0.1,0.2-0.2,0.3-0.4,0.3c-0.5,0-1,0-1.5,0c-0.1,0-0.2,0-0.2,0.1c0.1,0.1,0.2,0.1,0.2,0.2c0.4,0.3,0.7,0.6,1.1,0.8
				c0.2,0.2,0.2,0.2,0.1,0.4c-0.1,0.4-0.3,0.9-0.4,1.3c0,0.1-0.1,0.2,0,0.3c0.1,0,0.2-0.1,0.3-0.2c0.4-0.3,0.8-0.5,1.1-0.8
				c0.2-0.1,0.3-0.1,0.4,0c0.1,0.1,0.3,0.2,0.5,0.3C-110.9,96.5-110.5,96.7-110.2,96.9"/>
		</defs>
		<clipPath id="SVGID_370_">
			<use xlink:href="#SVGID_439_"  style="overflow:visible;"/>
		</clipPath>
		<g class="st187">
			<defs>
				<rect id="SVGID_441_" x="-389.4" y="-5617.9" width="1440" height="7509"/>
			</defs>
			<clipPath id="SVGID_372_">
				<use xlink:href="#SVGID_441_"  style="overflow:visible;"/>
			</clipPath>
		</g>
	</g>
	<g>
		<defs>
			<path id="SVGID_443_" d="M-112.4,93.5c0.1-0.4,0.3-0.9,0.4-1.3c0-0.1,0-0.2,0.1-0.3c0.1,0.1,0.1,0.1,0.1,0.2
				c0.2,0.5,0.3,0.9,0.5,1.4c0.1,0.2,0.2,0.3,0.4,0.3c0.5,0,1,0,1.4,0c0.1,0,0.2,0,0.3,0c0,0.1-0.1,0.2-0.2,0.2
				c-0.4,0.3-0.7,0.6-1.1,0.8c-0.3,0.2-0.3,0.2-0.2,0.5c0.2,0.5,0.3,1,0.5,1.6l-0.1,0c-0.3-0.2-0.6-0.5-1-0.7
				c-0.2-0.1-0.3-0.2-0.5-0.3c-0.2-0.1-0.3-0.1-0.4,0c-0.4,0.3-0.8,0.5-1.1,0.8c-0.1,0.1-0.2,0.1-0.3,0.2c-0.1-0.1,0-0.2,0-0.3
				c0.1-0.4,0.3-0.9,0.4-1.3c0.1-0.3,0.1-0.3-0.1-0.4c-0.4-0.3-0.7-0.6-1.1-0.8c-0.1-0.1-0.2-0.1-0.2-0.2c0.1-0.1,0.1-0.1,0.2-0.1
				c0.5,0,1,0,1.5,0c0,0,0,0,0,0C-112.6,93.7-112.5,93.6-112.4,93.5z M-82.5,93.7c0.5,0,1,0,1.5,0c0.4,0,0.4,0,0.5-0.3
				c0.1-0.4,0.3-0.9,0.4-1.3c0-0.1,0-0.2,0.1-0.2c0.1,0.1,0.1,0.2,0.1,0.3c0.1,0.4,0.3,0.8,0.4,1.2c0.1,0.4,0.1,0.4,0.4,0.4
				c0,0,0.1,0,0.1,0c0.4,0,0.8,0,1.3,0c0.1,0,0.2,0,0.3,0c0,0.1-0.1,0.1-0.1,0.2c-0.4,0.3-0.8,0.6-1.2,0.9C-79,95-79,95-78.9,95.3
				c0.1,0.4,0.3,0.9,0.4,1.3c0,0.1,0.1,0.2,0.1,0.3c-0.1,0-0.2-0.1-0.3-0.2c-0.4-0.3-0.7-0.5-1.1-0.8c-0.1-0.1-0.3-0.1-0.4,0
				c-0.4,0.3-0.8,0.6-1.3,0.9c-0.1,0-0.1,0.1-0.2,0.1c0-0.1,0-0.2,0.1-0.3c0.1-0.4,0.3-0.9,0.4-1.3c0.1-0.3,0.1-0.3-0.2-0.5
				c-0.4-0.3-0.8-0.6-1.2-0.9c-0.1,0-0.1-0.1-0.2-0.2C-82.7,93.7-82.6,93.7-82.5,93.7C-82.6,93.7-82.6,93.7-82.5,93.7
				C-82.6,93.7-82.5,93.7-82.5,93.7z M-93.5,82c0.1-0.1,0.1-0.2,0.1-0.3c0.1,0.1,0.2,0.3,0.4,0.2c0,0.3,0,0.5-0.2,0.7
				c-0.2,0.3-0.4,0.4-0.8,0.3c-0.4-0.1-0.7-0.1-1.1,0c-0.6,0.2-1.3,0.1-1.9,0c-0.2,0-0.5-0.1-0.7-0.1c-0.2,0-0.3,0-0.5,0
				c-0.2,0.1-0.2,0.2-0.1,0.4c0.1,0.2,0.5,0.3,0.7,0.3c0.3,0,0.5-0.1,0.8-0.1c0.5,0,0.9,0.2,1,0.8c0,0.2,0.1,0.4,0.2,0.6
				c0,0.2,0.1,0.3,0.2,0.4c0.1,0.2,0.3,0.2,0.5,0.1c0.2-0.1,0.2-0.2,0.2-0.4c-0.1-0.6,0.4-1.1,1-1c0.2,0,0.4,0.1,0.6,0.2
				c0.5,0.3,1.1,0.5,1.6,0.8c0.4,0.2,0.8,0.4,1.2,0.6c0.4,0.3,0.9,0.4,1.3,0.6c0.1,0,0.1,0,0.2,0.1c0.3,0.3,0.6,0.3,1,0.3
				c0.1,0,0.2,0,0.4,0.1c0,0.1,0,0.1-0.1,0.2c-0.5,0.3-1,0.6-1.6,0.6c-0.1,0-0.2,0-0.3,0.1c-0.3,0.1-0.6,0.1-0.9,0.1
				c-0.3-0.1-0.6-0.1-0.9-0.1c-0.2,0-0.4-0.1-0.5-0.2c-0.2-0.2-0.4-0.1-0.6,0c-0.6,0.3-1.3,0.4-2,0.5c-0.2,0-0.3,0.2-0.3,0.4
				c0,0.1,0.1,0.2,0.2,0.3c0.2,0.2,0.3,0.3,0.5,0.5c0.1,0.1,0.2,0.3,0.3,0.5c0,0.3,0,0.3-0.2,0.4c-0.1,0-0.2,0-0.2,0.2
				c0,0.1,0.1,0.1,0.2,0.2c0.1,0.1,0.3,0.1,0.4,0.1c0.2-0.1,0.8,0,0.9,0.1c0.1,0.1,0.3,0.1,0.5,0.2c-0.1-0.2-0.1-0.4-0.3-0.6
				c0,0-0.1-0.1-0.1-0.2c0.1-0.2,0-0.3-0.1-0.5c-0.1-0.1,0-0.2,0.1-0.3c0,0,0.1-0.1,0.1-0.1c0.2-0.1,0.4-0.4,0.6-0.3
				c0.3,0.1,0.5,0.3,0.7,0.6c0.3,0.4,0.5,0.9,0.8,1.3c0,0,0.1,0.1,0.1,0.1c0,0.1,0.1,0.2,0.2,0.1c0.1,0,0.1-0.1,0.1-0.2
				c0-0.2,0-0.4,0-0.6c0-0.1,0-0.2,0-0.4c-0.1-0.1-0.1-0.2-0.1-0.3c0-0.1,0.1-0.2,0.2-0.3c0.3-0.1,0.5-0.3,0.8-0.2
				c0.3,0,0.6,0,0.9,0.1c0.6,0.1,1.2,0.6,1.3,1.2c0.1,0.7-0.2,1.3-0.8,1.7c-0.2,0.1-0.3,0.2-0.3,0.4c0,0.1-0.1,0.2-0.1,0.3
				c-0.1,0.1-0.2,0.2-0.2,0.4c-0.1,0.2,0,0.4,0.1,0.6c0.2,0.3,0.3,0.6,0.3,0.9c0,0.1,0,0.2-0.1,0.3c-0.2,0.2-0.4,0.3-0.6,0.4
				c-0.1,0-0.1,0.1-0.2,0c-0.4-0.2-0.7-0.3-0.9-0.7c-0.1-0.3-0.3-0.5-0.5-0.7c-0.1-0.1-0.1-0.1-0.2-0.1c-0.3,0.1-0.5-0.1-0.6-0.3
				c-0.1-0.1-0.2-0.2-0.4-0.2c-0.1,0.1,0,0.2,0,0.3c0.4,1.5,0.2,2.9-0.7,4.2c-0.8,1.1-1.8,1.8-3.2,2.1c-1.8,0.3-3.3-0.3-4.6-1.6
				c0,0-0.1-0.1-0.1-0.1c-0.2-0.2-0.2-0.2-0.4-0.1c-0.3,0.2-0.3,0.3-0.1,0.6c0,0,0.1,0,0.1,0.1c0.1,0.4,0.3,0.7,0.3,1.1
				c0,0.3,0.1,0.5,0,0.8c0,0.1,0.1,0.1,0.1,0.2c0.3,0.1,0.7,0.2,1.1,0.2c0.1,0,0.2-0.1,0.1-0.2c-0.1-0.2-0.2-0.5-0.3-0.7
				c0,0,0-0.1,0-0.2c0.1,0,0.2,0,0.3,0.1c0.7,0.2,1.4,0.3,2.1,0.3c0.4,0,0.8-0.1,1.1-0.1c0.1,0,0.2-0.1,0.3,0
				c0.1,0.1-0.1,0.2-0.1,0.3c-0.4,0.6-0.9,1.2-1.5,1.6c-0.5,0.4-1.1,0.6-1.6,0.9c-0.1,0-0.1,0-0.2,0c0,0,0,0-0.1,0
				c0-0.1,0-0.1,0-0.2c0-0.1,0.1-0.3,0.1-0.4c0.1-0.3,0.1-0.4-0.3-0.3c-0.6,0.1-1.1,0-1.7-0.1c-0.2,0-0.4-0.1-0.6,0.1
				c0,0-0.1,0.1-0.2,0.1c-0.1,0-0.2,0-0.4,0c-0.2,0-0.4,0-0.7,0c-0.1,0-0.2,0-0.3,0c-0.4-0.2-0.9-0.2-1.2-0.6c0,0,0-0.1,0-0.1
				c-0.3-0.1-0.5-0.4-0.7-0.6c-0.1-0.1-0.2-0.2-0.3-0.4c-0.1-0.2-0.2-0.4-0.5-0.4c-0.1,0-0.2-0.1-0.1-0.2c0.1-0.2,0.1-0.3,0-0.5
				c-0.1-0.2-0.1-0.4-0.2-0.7c0-0.1,0-0.2,0-0.3c0.1-0.4,0-0.8-0.2-1.1c-0.2-0.3-0.3-0.6-0.3-0.9c0-0.3,0-0.7,0.1-1
				c0.2-0.4,0.4-0.9,0.7-1.2c0.2-0.2,0.6-0.4,0.9-0.4c0.1,0,0.3,0,0.4-0.1c0.1,0,0.1-0.1,0.1-0.1c0-0.1-0.1-0.1-0.1-0.1
				c-0.1,0-0.1,0-0.2,0c-0.1,0-0.2,0-0.3,0c-0.1,0-0.2-0.1-0.1-0.2c0.1-0.1,0.2-0.3,0.3-0.4c0.9-0.9,2-1.5,3.4-1.4
				c0.1,0,0.3,0,0.4,0.1c-0.7,0.9-1.4,1.9-1.5,3.1c-0.3-0.2-0.5-0.4-0.8-0.5c0.1,0.2,0.1,0.4,0.3,0.5c0,0.1,0.1,0.1,0.1,0.2
				c0,0.3,0,0.6-0.1,0.8c-0.1,0.2-0.2,0.5-0.4,0.7c-0.1,0-0.1,0.1-0.1,0.2c0.1,0.3,0.5,0.7,0.8,0.7c0,0,0,0,0.1,0
				c0-0.2-0.1-0.3-0.1-0.5c0-0.6,0.3-1.1,0.5-1.6c0.1-0.1,0.1-0.1,0.2-0.1c0.2,0,0.2-0.1,0.2-0.3c0-0.3,0.1-0.6,0.1-0.9
				c0.4-1.4,1.2-2.5,2.4-3.2c0,0,0.1,0,0.1-0.1c0.4-0.2,0.4-0.2,0-0.5c-0.1-0.1-0.1-0.3,0-0.5c0.2-0.2,0.4-0.5,0.6-0.6
				c0.1-0.1,0.2-0.1,0.2-0.2c0.2-0.2,0.1-0.6-0.2-0.6c-0.4-0.1-0.7-0.2-1.1-0.3c-0.4,0-0.8-0.1-1.1-0.2c-0.1,0-0.2,0-0.3,0.1
				c-0.1,0.1-0.3,0.1-0.5,0c-0.2-0.1-0.3,0-0.5,0c-0.4,0.1-0.7,0.2-1.1,0.2c-0.1,0-0.1,0-0.2,0c-0.3-0.2-0.6-0.1-0.9-0.3
				c-0.1,0-0.1,0-0.2,0c-0.1,0-0.2,0-0.2,0c-0.3-0.1-0.5-0.4-0.8-0.5c0,0,0-0.1,0-0.1c0.3-0.1,0.5-0.1,0.8-0.2
				c0.2-0.1,0.4-0.1,0.5-0.2c0-0.1,0.2-0.1,0.2-0.1c0.7-0.2,1.3-0.5,1.9-0.9c0.7-0.4,1.5-0.8,2.2-1.1c0.2-0.1,0.5-0.2,0.7-0.2
				c0.6,0,0.8,0.3,0.6,0.9c-0.1,0.2,0,0.4,0.1,0.5c0.1,0.1,0.2,0,0.2-0.1c0-0.4,0.1-0.8,0.2-1.2c-0.1,0-0.1,0-0.2,0
				c0,0-0.1,0.1-0.1,0.1c-0.2-0.3-0.5-0.4-0.8-0.5c-0.3-0.1-0.5-0.3-0.6-0.7c-0.1-0.3,0-0.5,0.1-0.7c0.2-0.3,0.5-0.4,0.9-0.5
				c0.3,0,0.5,0,0.8,0c0.9,0.2,1.8,0.2,2.7,0c0.3-0.1,0.6-0.1,0.9,0.2c0,0,0.1,0.1,0.1,0.1C-93.6,82.1-93.6,82.1-93.5,82z
				 M-96.9,72.2c-1.5,2-3.2,3.9-4.9,5.7c-3.4,3.5-7,6.7-10.8,9.7c-2.2,1.7-4.4,3.4-6.7,5c-0.3,0.2-0.3,0.2-0.1,0.5
				c0.6,0.8,1.2,1.7,1.8,2.4c5.5,6.6,13.5,9.9,21.7,9.9c1.8,0,3.6-0.2,5.4-0.6c4-0.8,7.7-2.5,10.9-5c2.3-1.9,4.3-4.1,5.8-6.7
				c0.2-0.3,0.2-0.3-0.1-0.5c-0.6-0.5-1.2-0.9-1.9-1.4c-4-2.9-7.8-6-11.5-9.3c-3.3-3-6.4-6.3-9.2-9.9c-0.1-0.1-0.1-0.2-0.2-0.2
				C-96.7,72-96.8,72.1-96.9,72.2z"/>
		</defs>
		<clipPath id="SVGID_374_">
			<use xlink:href="#SVGID_443_"  style="overflow:visible;"/>
		</clipPath>
		<g class="st189">
			<defs>
				<rect id="SVGID_445_" x="-389.4" y="-5617.9" width="1440" height="7509"/>
			</defs>
			<clipPath id="SVGID_376_">
				<use xlink:href="#SVGID_445_"  style="overflow:visible;"/>
			</clipPath>
		</g>
	</g>
	<g>
		<defs>
			<path id="SVGID_453_" d="M-96.5,26.6c0.4,0.6,0.7,1.2,1.1,1.8c2.7,4.4,5.5,8.7,8.7,12.7c5.8,7.5,12.6,14,20.3,19.5
				c0.8,0.6,1.6,1.2,2.4,1.7c0.2,0.1,0.3,0.2,0.2,0.4c0,0.1,0,0.1,0,0.2c0,21.4,0,42.8,0,64.2c0,0.6,0.1,0.4-0.4,0.7
				c-5.2,3.6-10.8,6.2-16.9,7.8c-2.5,0.7-5,1.2-7.5,1.5c-1.6,0.2-3.1,0.3-4.7,0.4c-1.8,0.1-3.6,0.1-5.4,0c-1.6-0.1-3.1-0.2-4.7-0.4
				c-3.3-0.4-6.6-1.1-9.8-2c-5.6-1.7-10.8-4.1-15.6-7.5c-0.2-0.2-0.3-0.3-0.3-0.6c0-21.5,0-42.9,0-64.4c0-0.3,0.1-0.5,0.3-0.6
				c5.7-3.9,11-8.3,15.8-13.3c3.9-4,7.3-8.3,10.5-12.9c2.1-3,4-6,5.9-9.1C-96.7,26.9-96.7,26.7-96.5,26.6 M-96.5,61.4
				c-0.1,0.1-0.2,0.2-0.3,0.3c-0.5,0.7-1,1.3-1.6,2c-4.8,6-10,11.5-15.9,16.4c-3.4,2.9-6.9,5.5-10.6,8c-0.2,0.1-0.3,0.3-0.3,0.6
				c0,2.5,0,4.9,0,7.4c0,0.2,0.1,0.4,0.2,0.6c1,1.2,2.1,2.4,3.3,3.5c2.9,2.8,6.1,5.3,9.8,7.2c4.1,2.2,8.5,3.5,13.1,3.8
				c1.5,0.1,3.1,0.1,4.6,0c1.7-0.1,3.3-0.4,4.9-0.8c4-1,7.7-2.7,11.2-4.9c3.7-2.4,7-5.4,9.9-8.8c0.1-0.2,0.2-0.3,0.2-0.5
				c0-2.4,0-4.9,0-7.3c0-0.3-0.1-0.4-0.3-0.6c-2.8-1.9-5.5-3.9-8.2-6c-7-5.6-13.3-12-18.9-19.1C-95.7,62.5-96.1,62-96.5,61.4
				 M-125.1,73.5c0.2,0,0.2-0.1,0.3-0.2c2.1-1.5,4.2-3,6.1-4.7c4.3-3.6,8.1-7.5,11.8-11.6c3.3-3.7,6.4-7.5,9.4-11.5
				c0.2-0.3,0.4-0.6,0.6-0.8c0.2-0.2,0.2-0.2,0.4,0c0.2,0.3,0.4,0.5,0.6,0.8c3.8,5,7.7,9.8,12,14.4c3.1,3.3,6.3,6.3,9.7,9.2
				c1.8,1.5,3.7,2.9,5.7,4.3c0.1,0.1,0.2,0.2,0.3,0.1v-0.4c0-2.6,0-5.2,0-7.8c0-0.3-0.1-0.5-0.3-0.7c-3.3-2.7-6.5-5.5-9.5-8.5
				c-3.7-3.6-7.2-7.5-10.4-11.6c-2.9-3.8-5.6-7.7-8.1-11.8c-0.1-0.1-0.1-0.3-0.3-0.4c0,0-0.1,0-0.1,0c-0.1,0.1-0.1,0.2-0.2,0.3
				c-5,8.3-10.9,15.8-17.7,22.6c-3.3,3.3-6.7,6.4-10.3,9.3c-0.2,0.2-0.3,0.4-0.3,0.6c0,2.6,0,5.2,0,7.9
				C-125.1,73.3-125.1,73.4-125.1,73.5 M-96.6,47.8c-0.1,0.1-0.2,0.2-0.3,0.3c-1,1.3-2,2.6-3,3.9c-3.6,4.5-7.3,8.9-11.3,13
				c-4.2,4.3-8.8,8.3-13.7,11.7c-0.2,0.1-0.3,0.3-0.3,0.5c0,2.7,0,5.4,0,8c0,0.1,0,0.2,0.1,0.3c11.1-7.5,20.4-16.7,28.5-27.3
				C-88.5,68.8-79.1,78-68,85.5c0.1-0.2,0-0.3,0-0.4c0-2.6,0-5.2,0-7.9c0-0.3-0.1-0.5-0.3-0.6c-3.5-2.4-6.8-5.1-9.9-8
				c-3.4-3.2-6.6-6.6-9.7-10.2c-2.9-3.4-5.6-6.8-8.3-10.4C-96.4,48-96.4,47.8-96.6,47.8 M-68,118.6c-0.2,0-0.2,0.1-0.3,0.2
				c-4.2,3.2-8.7,5.7-13.7,7.3c-2.8,1-5.7,1.6-8.7,2c-2.1,0.3-4.3,0.4-6.4,0.4c-2.2,0-4.3-0.2-6.5-0.5c-2.8-0.4-5.5-1.1-8.2-2
				c-4.8-1.7-9.1-4.1-13-7.3c-0.1-0.1-0.1-0.2-0.3-0.2c0,0.1,0,0.2,0,0.4c0,2.3,0,4.5,0,6.8c0,0.3,0.1,0.5,0.4,0.7
				c3.3,2.2,6.9,3.9,10.6,5.2c3,1,6.1,1.8,9.2,2.2c2.1,0.3,4.2,0.5,6.3,0.6c1.5,0,3,0,4.5,0c1.3-0.1,2.5-0.2,3.8-0.3
				c2.5-0.3,5-0.7,7.5-1.4c5.2-1.3,10.1-3.4,14.7-6.3c0.2-0.2,0.3-0.3,0.3-0.6c0-2.3,0-4.6,0-6.8C-67.9,118.8-67.9,118.7-68,118.6
				 M-68,108.8C-68,108.8-68,108.8-68,108.8c-0.1,0.1-0.2,0.1-0.3,0.2c-3.4,3.2-7.2,5.9-11.5,7.9c-5.1,2.4-10.5,3.8-16.1,3.9
				c-2.2,0.1-4.5-0.1-6.7-0.4c-3.7-0.6-7.3-1.7-10.7-3.3c-4.3-2-8.1-4.8-11.4-8.1c-0.1-0.1-0.2-0.2-0.3-0.3c-0.1,0.1,0,0.2,0,0.3
				c0,2.3,0,4.6,0,6.9c0,0.3,0.1,0.5,0.3,0.6c0,0,0.1,0.1,0.1,0.1c7.9,6.4,16.9,9.5,27,9.8c1.8,0,3.6-0.1,5.4-0.2
				c2.1-0.2,4.3-0.6,6.3-1.1c6.5-1.6,12.4-4.5,17.7-8.6c0.2-0.2,0.3-0.3,0.3-0.6c0-2.3,0-4.6,0-6.9C-67.9,109-67.9,108.9-68,108.8
				 M-125,99c-0.1,0-0.1,0.1-0.1,0.2c0,2.4,0,4.8,0,7.2c0,0.2,0.1,0.3,0.2,0.4c0.5,0.5,1,1,1.5,1.4c3.8,3.5,8.1,6.2,12.9,8
				c4,1.5,8.1,2.4,12.4,2.5c1.7,0.1,3.4,0,5-0.2c1.8-0.2,3.6-0.5,5.4-0.9c7.5-1.8,13.9-5.6,19.6-10.9c0.2-0.2,0.2-0.3,0.2-0.6
				c0-2.3,0-4.6,0-6.9c0-0.1,0-0.2,0-0.3c-0.1,0-0.2,0.2-0.3,0.2c-1.4,1.6-3,3.2-4.6,4.6c-3.3,2.8-6.9,5.1-10.9,6.8
				c-3.4,1.4-7,2.3-10.7,2.5c-1.5,0.1-3,0.1-4.5,0c-1.8-0.1-3.6-0.4-5.4-0.9c-4.3-1.1-8.3-2.9-11.9-5.4c-3.2-2.2-6-4.7-8.5-7.6
				C-124.9,99.2-124.9,99.1-125,99"/>
		</defs>
		<clipPath id="SVGID_378_">
			<use xlink:href="#SVGID_453_"  style="overflow:visible;"/>
		</clipPath>
		<g class="st191">
			<defs>
				<rect id="SVGID_455_" x="-389.4" y="-5617.9" width="1440" height="7509"/>
			</defs>
			<clipPath id="SVGID_380_">
				<use xlink:href="#SVGID_455_"  style="overflow:visible;"/>
			</clipPath>
		</g>
	</g>
</g>
<g>
	<g>
		<defs>
			<path id="SVGID_457_" d="M-458.8,0.5c-43.9,0-79.5,35.6-79.5,79.5v4c0,43.9,35.6,79.5,79.5,79.5h4c43.9,0,79.5-35.6,79.5-79.5v-4
				c0-43.9-35.6-79.5-79.5-79.5H-458.8z"/>
		</defs>
		<clipPath id="SVGID_382_">
			<use xlink:href="#SVGID_457_"  style="overflow:visible;"/>
		</clipPath>
		<g class="st193">
			<defs>
				<rect id="SVGID_459_" x="-750.3" y="-3748.5" width="1440" height="7509"/>
			</defs>
			<clipPath id="SVGID_384_">
				<use xlink:href="#SVGID_459_"  style="overflow:visible;"/>
			</clipPath>
		</g>
	</g>
	<g>
		<defs>
			<path id="SVGID_465_" d="M-427.3,63.3l2-2l0.5,0.5c0.5,0.5,1.4,0.5,2,0l3.7-3.7c0.5-0.5,0.5-1.4,0-2l-6-6c-0.5-0.5-1.4-0.5-2,0
				l-3.7,3.7c-0.5,0.5-0.5,1.4,0,2l0.5,0.5l-2,2c-5.4-4.6-12.2-7.7-19.6-8.6v-4.6h2.1c0.8,0,1.4-0.6,1.4-1.4v-7
				c0-0.8-0.6-1.4-1.4-1.4h-14.1c-0.8,0-1.4,0.6-1.4,1.4v7c0,0.8,0.6,1.4,1.4,1.4h2.1v4.6c-7.4,1-14.1,4-19.6,8.6l-2-2l0.5-0.5
				c0.5-0.5,0.5-1.4,0-2l-3.7-3.7c-0.5-0.5-1.4-0.5-2,0l-6,6c-0.5,0.5-0.5,1.4,0,2l3.7,3.7c0.5,0.5,1.4,0.5,2,0l0.5-0.5l2,2
				c-5.4,6.6-8.6,14.9-8.6,24c0,21,17,38,38,38c21,0,38-17,38-38C-418.8,78.2-422,69.8-427.3,63.3 M-429.3,101.6l-3.6-2.1
				c-0.7-0.4-1.5-0.2-1.9,0.5c-0.4,0.7-0.2,1.5,0.5,1.9l3.6,2.1c-2.4,3.8-5.6,7-9.4,9.4l-2.1-3.6c-0.4-0.7-1.2-0.9-1.9-0.5
				c-0.7,0.4-0.9,1.2-0.5,1.9l2.1,3.6c-3.9,2-8.2,3.2-12.8,3.4v-4.2c0-0.8-0.6-1.4-1.4-1.4c-0.8,0-1.4,0.6-1.4,1.4v4.2
				c-4.6-0.2-9-1.4-12.8-3.4l2.1-3.6c0.4-0.7,0.2-1.5-0.5-1.9c-0.7-0.4-1.5-0.2-1.9,0.5l-2.1,3.6c-3.8-2.4-7-5.6-9.4-9.4l3.6-2.1
				c0.7-0.4,0.9-1.3,0.5-1.9c-0.4-0.7-1.3-0.9-1.9-0.5l-3.6,2.1c-2-3.9-3.2-8.2-3.4-12.8h4.2c0.8,0,1.4-0.6,1.4-1.4
				c0-0.8-0.6-1.4-1.4-1.4h-4.2c0.2-4.6,1.4-9,3.4-12.8l3.6,2.1c0.2,0.1,0.5,0.2,0.7,0.2c0.5,0,1-0.3,1.2-0.7
				c0.4-0.7,0.2-1.5-0.5-1.9l-3.6-2.1c2.4-3.8,5.6-7,9.4-9.4l2.1,3.6c0.3,0.5,0.7,0.7,1.2,0.7c0.2,0,0.5-0.1,0.7-0.2
				c0.7-0.4,0.9-1.2,0.5-1.9l-2.1-3.6c3.9-2,8.2-3.2,12.8-3.4v4.2c0,0.8,0.6,1.4,1.4,1.4s1.4-0.6,1.4-1.4v-4.2
				c4.6,0.2,9,1.4,12.8,3.4l-2.1,3.6c-0.4,0.7-0.2,1.5,0.5,1.9c0.2,0.1,0.5,0.2,0.7,0.2c0.5,0,1-0.3,1.2-0.7l2.1-3.6
				c3.8,2.4,7,5.6,9.4,9.4l-3.6,2.1c-0.7,0.4-0.9,1.2-0.5,1.9c0.3,0.5,0.7,0.7,1.2,0.7c0.2,0,0.5-0.1,0.7-0.2l3.6-2.1
				c2,3.9,3.2,8.2,3.4,12.8h-4.2c-0.8,0-1.4,0.6-1.4,1.4c0,0.8,0.6,1.4,1.4,1.4h4.2C-426,93.3-427.3,97.7-429.3,101.6"/>
		</defs>
		<clipPath id="SVGID_386_">
			<use xlink:href="#SVGID_465_"  style="overflow:visible;"/>
		</clipPath>
		<g class="st195">
			<defs>
				<rect id="SVGID_467_" x="-750.3" y="-3748.5" width="1440" height="7509"/>
			</defs>
			<clipPath id="SVGID_388_">
				<use xlink:href="#SVGID_467_"  style="overflow:visible;"/>
			</clipPath>
		</g>
	</g>
	<g>
		<defs>
			<path id="SVGID_469_" d="M-448.8,69.3c-0.5-0.2-5.4,8-8.4,13.1c-2.6,0.2-4.6,2.3-4.6,4.9c0,2.7,2.2,4.9,4.9,4.9
				c2.7,0,4.9-2.2,4.9-4.9c0-1.1-0.4-2.2-1-3C-451.1,78.6-448.2,69.5-448.8,69.3"/>
		</defs>
		<clipPath id="SVGID_390_">
			<use xlink:href="#SVGID_469_"  style="overflow:visible;"/>
		</clipPath>
		<g class="st197">
			<defs>
				<rect id="SVGID_471_" x="-750.3" y="-3748.5" width="1440" height="7509"/>
			</defs>
			<clipPath id="SVGID_392_">
				<use xlink:href="#SVGID_471_"  style="overflow:visible;"/>
			</clipPath>
		</g>
	</g>
</g>
</svg>
